<svg xmlns="http://www.w3.org/2000/svg" viewBox="0 0 52.64 27"><defs><style>.cls-1{fill:#ff871d;fill-rule:evenodd;}.cls-2{fill:#fff;}</style></defs><title>arrow-client</title><g id="Layer_2" data-name="Layer 2"><g id="Layer_1-2" data-name="Layer 1"><path class="cls-1" d="M31.32,26.5a.5.5,0,0,1-.48-.63c.87-3.13,1.28-4.6,1.53-5.3-2.76-4.8-7.61-7.23-14.42-7.23C9.63,13.33,1.29,17,1.21,17.09a.5.5,0,0,1-.55-.82C.78,16.15,13,4.92,28.43,4.92a31.45,31.45,0,0,1,8,1L37.82.87a.5.5,0,0,1,.38-.36h.1a.5.5,0,0,1,.39.19L52,17.29a.5.5,0,0,1-.2.77l-20.31,8.4A.5.5,0,0,1,31.32,26.5Z"/><path class="cls-2" d="M38.31,1,51.64,17.6,31.32,26s1.54-5.56,1.55-5.56h0c-3.3-5.86-9.14-7.61-14.93-7.61C9.41,12.83,1,16.63,1,16.63S13,5.42,28.43,5.42a30.81,30.81,0,0,1,8.32,1.13L38.31,1m0-1-.2,0a1,1,0,0,0-.76.71L36.06,5.34a32,32,0,0,0-7.63-.92C12.78,4.42.82,15.43.32,15.9a1,1,0,0,0,1.09,1.64c.08,0,8.33-3.71,16.53-3.71,6.5,0,11.16,2.27,13.85,6.75l-.13.46L31.13,23l-.77,2.78a1,1,0,0,0,1.35,1.19L52,18.52a1,1,0,0,0,.4-1.55L39.09.37A1,1,0,0,0,38.31,0Z"/></g></g></svg>