<svg xmlns="http://www.w3.org/2000/svg" xmlns:xlink="http://www.w3.org/1999/xlink" viewBox="0 0 135 40"><defs><style>.cls-1{fill:#a6a6a6;}.cls-10,.cls-2,.cls-9{fill:#fff;}.cls-3{fill:url(#linear-gradient);}.cls-4{fill:url(#linear-gradient-2);}.cls-5{fill:url(#linear-gradient-3);}.cls-6{fill:url(#linear-gradient-4);}.cls-7{opacity:0.2;}.cls-7,.cls-8,.cls-9{isolation:isolate;}.cls-8{opacity:0.12;}.cls-9{opacity:0.25;}.cls-10{stroke:#fff;stroke-miterlimit:10;stroke-width:0.2px;}</style><linearGradient id="linear-gradient" x1="21.8" y1="605.29" x2="5.02" y2="588.51" gradientTransform="matrix(1, 0, 0, -1, 0, 614)" gradientUnits="userSpaceOnUse"><stop offset="0" stop-color="#00a0ff"/><stop offset="0.01" stop-color="#00a1ff"/><stop offset="0.26" stop-color="#00beff"/><stop offset="0.51" stop-color="#00d2ff"/><stop offset="0.76" stop-color="#00dfff"/><stop offset="1" stop-color="#00e3ff"/></linearGradient><linearGradient id="linear-gradient-2" x1="33.83" y1="594" x2="9.64" y2="594" gradientTransform="matrix(1, 0, 0, -1, 0, 614)" gradientUnits="userSpaceOnUse"><stop offset="0" stop-color="#ffe000"/><stop offset="0.41" stop-color="#ffbd00"/><stop offset="0.78" stop-color="orange"/><stop offset="1" stop-color="#ff9c00"/></linearGradient><linearGradient id="linear-gradient-3" x1="24.83" y1="591.7" x2="2.07" y2="568.95" gradientTransform="matrix(1, 0, 0, -1, 0, 614)" gradientUnits="userSpaceOnUse"><stop offset="0" stop-color="#ff3a44"/><stop offset="1" stop-color="#c31162"/></linearGradient><linearGradient id="linear-gradient-4" x1="7.3" y1="613.82" x2="17.46" y2="603.66" gradientTransform="matrix(1, 0, 0, -1, 0, 614)" gradientUnits="userSpaceOnUse"><stop offset="0" stop-color="#32a071"/><stop offset="0.07" stop-color="#2da771"/><stop offset="0.48" stop-color="#15cf74"/><stop offset="0.8" stop-color="#06e775"/><stop offset="1" stop-color="#00f076"/></linearGradient></defs><title>button-google-play</title><g id="Layer_2" data-name="Layer 2"><g id="Layer_1-2" data-name="Layer 1"><rect width="135" height="40" rx="5" ry="5"/><path class="cls-1" d="M130,.8A4.2,4.2,0,0,1,134.2,5V35a4.2,4.2,0,0,1-4.2,4.2H5A4.2,4.2,0,0,1,.8,35V5A4.2,4.2,0,0,1,5,.8H130m0-.8H5A5,5,0,0,0,0,5V35a5,5,0,0,0,5,5H130a5,5,0,0,0,5-5V5a5,5,0,0,0-5-5Z"/><path class="cls-2" d="M68.14,21.75A4.25,4.25,0,1,0,72.41,26,4.19,4.19,0,0,0,68.14,21.75Zm0,6.83A2.58,2.58,0,1,1,70.54,26,2.46,2.46,0,0,1,68.14,28.58Zm-9.31-6.83A4.25,4.25,0,1,0,63.09,26,4.19,4.19,0,0,0,58.82,21.75Zm0,6.83A2.58,2.58,0,1,1,61.22,26,2.46,2.46,0,0,1,58.82,28.58ZM47.74,23.06v1.8h4.32a3.77,3.77,0,0,1-1,2.27,4.42,4.42,0,0,1-3.33,1.32,4.8,4.8,0,0,1,0-9.6A4.6,4.6,0,0,1,51,20.14l1.27-1.27A6.29,6.29,0,0,0,47.74,17a6.61,6.61,0,1,0,0,13.21,6,6,0,0,0,4.61-1.85,6,6,0,0,0,1.56-4.22,5.87,5.87,0,0,0-.1-1.13Zm45.31,1.4a4,4,0,0,0-3.64-2.71,4,4,0,0,0-4,4.25,4.16,4.16,0,0,0,4.22,4.25,4.23,4.23,0,0,0,3.54-1.88l-1.45-1a2.43,2.43,0,0,1-2.09,1.18,2.16,2.16,0,0,1-2.06-1.29l5.69-2.35Zm-5.8,1.42a2.33,2.33,0,0,1,2.22-2.48,1.65,1.65,0,0,1,1.58.9ZM82.63,30H84.5V17.5H82.63Zm-3.06-7.3H79.5a3,3,0,0,0-2.24-1,4.26,4.26,0,0,0,0,8.51,2.9,2.9,0,0,0,2.24-1h.06v.61c0,1.63-.87,2.5-2.27,2.5a2.35,2.35,0,0,1-2.14-1.51l-1.63.68a4.05,4.05,0,0,0,3.77,2.51c2.19,0,4-1.29,4-4.43V22H79.57Zm-2.14,5.88a2.59,2.59,0,0,1,0-5.16A2.4,2.4,0,0,1,79.7,26,2.38,2.38,0,0,1,77.42,28.58ZM101.81,17.5H97.33V30H99.2V25.26h2.61a3.89,3.89,0,1,0,0-7.76Zm0,6H99.2V19.24h2.65a2.14,2.14,0,1,1,0,4.29Zm11.53-1.8a3.5,3.5,0,0,0-3.33,1.91l1.66.69a1.77,1.77,0,0,1,1.7-.92,1.8,1.8,0,0,1,2,1.61v.13a4.13,4.13,0,0,0-1.95-.48c-1.79,0-3.6,1-3.6,2.81a2.89,2.89,0,0,0,3.1,2.75A2.63,2.63,0,0,0,115.32,29h.06v1h1.8V25.19C117.18,23,115.52,21.73,113.39,21.73Zm-.23,6.85c-.61,0-1.46-.31-1.46-1.06,0-1,1.06-1.33,2-1.33a3.32,3.32,0,0,1,1.7.42A2.26,2.26,0,0,1,113.16,28.58ZM123.74,22l-2.14,5.42h-.06L119.32,22h-2l3.33,7.58-1.9,4.21h1.95L125.82,22Zm-16.81,8h1.87V17.5h-1.87Z"/><path class="cls-3" d="M10.44,7.54A2,2,0,0,0,10,8.94V31.06a2,2,0,0,0,.46,1.4l.07.07L22.9,20.15v-.29L10.51,7.47Z"/><path class="cls-4" d="M27,24.28,22.9,20.15v-.29L27,15.72l.09.05L32,18.56c1.4.79,1.4,2.09,0,2.89l-4.89,2.78Z"/><path class="cls-5" d="M27.12,24.23,22.9,20,10.44,32.46a1.63,1.63,0,0,0,2.08.06l14.61-8.3"/><path class="cls-6" d="M27.12,15.78,12.51,7.48a1.63,1.63,0,0,0-2.08.06L22.9,20Z"/><path class="cls-7" d="M27,24.13,12.51,32.38a1.67,1.67,0,0,1-2,0h0l-.07.07h0l.07.07h0a1.66,1.66,0,0,0,2,0l14.61-8.3Z"/><path class="cls-8" d="M10.44,32.32a2,2,0,0,1-.46-1.4v.15a2,2,0,0,0,.46,1.4l.07-.07Z"/><path class="cls-8" d="M32,21.3l-5,2.83.09.09L32,21.44a1.75,1.75,0,0,0,1-1.44h0A1.86,1.86,0,0,1,32,21.3Z"/><path class="cls-9" d="M12.51,7.62,32,18.7a1.86,1.86,0,0,1,1,1.3h0a1.75,1.75,0,0,0-1-1.44L12.51,7.48C11.12,6.68,10,7.34,10,8.94v.15C10,7.49,11.12,6.83,12.51,7.62Z"/><path class="cls-10" d="M41.34,13V7h1.84a3,3,0,0,1,2.21.83A2.94,2.94,0,0,1,46.21,10a2.94,2.94,0,0,1-.83,2.17,3,3,0,0,1-2.21.83Zm.77-.74h1.06a2.25,2.25,0,0,0,1.65-.6A2.23,2.23,0,0,0,45.43,10a2.23,2.23,0,0,0-.61-1.66,2.25,2.25,0,0,0-1.65-.6H42.11Z"/><path class="cls-10" d="M47.3,13V7h.77v6Z"/><path class="cls-10" d="M51.13,13.13a2.24,2.24,0,0,1-1.28-.43,2,2,0,0,1-.82-1.2l.7-.28a1.61,1.61,0,0,0,.51.83,1.3,1.3,0,0,0,.88.34,1.4,1.4,0,0,0,.86-.26.84.84,0,0,0,.36-.72.92.92,0,0,0-.36-.77,3.69,3.69,0,0,0-1.13-.51,3,3,0,0,1-1.21-.65,1.36,1.36,0,0,1-.41-1,1.49,1.49,0,0,1,.51-1.12,1.87,1.87,0,0,1,1.33-.48,1.93,1.93,0,0,1,1.24.38,1.76,1.76,0,0,1,.62.83l-.7.29a1,1,0,0,0-.37-.53,1.31,1.31,0,0,0-1.53,0,.75.75,0,0,0-.31.62.7.7,0,0,0,.29.57,2.78,2.78,0,0,0,.85.41,7.23,7.23,0,0,1,.74.28,3.38,3.38,0,0,1,.6.36,1.42,1.42,0,0,1,.46.55,1.79,1.79,0,0,1,.16.77,1.65,1.65,0,0,1-.18.78,1.46,1.46,0,0,1-.48.54,2.37,2.37,0,0,1-.64.31A2.4,2.4,0,0,1,51.13,13.13Z"/><path class="cls-10" d="M55,13h-.77V7h2a1.9,1.9,0,0,1,1.32.51,1.74,1.74,0,0,1,0,2.56,1.89,1.89,0,0,1-1.32.51H55Zm0-3.17H56.3a1,1,0,0,0,.78-.33,1,1,0,0,0,0-1.44,1,1,0,0,0-.78-.33H55Z"/><path class="cls-10" d="M64,12.22a3.12,3.12,0,0,1-4.4,0A3.07,3.07,0,0,1,58.76,10a3.07,3.07,0,0,1,.88-2.22,3.1,3.1,0,0,1,4.4,0A3.07,3.07,0,0,1,64.93,10,3.07,3.07,0,0,1,64,12.22Zm-3.83-.5a2.31,2.31,0,0,0,3.26,0A2.35,2.35,0,0,0,64.14,10a2.35,2.35,0,0,0-.67-1.72,2.31,2.31,0,0,0-3.26,0A2.35,2.35,0,0,0,59.55,10,2.35,2.35,0,0,0,60.21,11.72Z"/><path class="cls-10" d="M66,13V7h.94l2.92,4.67h0l0-1.16V7h.77v6h-.8L66.78,8.11h0l0,1.16V13Z"/><path class="cls-10" d="M72,13V7h.77v6Zm.72-6.47h-.67l.44-1.07h.84Z"/><path class="cls-10" d="M75.64,13,73.53,7h.85L76,11.87h0L77.77,7h.85l-2.18,6Z"/><path class="cls-10" d="M83,7.74H80.26v1.9h2.46v.72H80.26v1.9H83V13h-3.5V7H83Z"/><path class="cls-10" d="M84.2,13V7H85v5.26h2.6V13Z"/><path class="cls-10" d="M90.55,13V7h.94l2.92,4.67h0l0-1.16V7h.77v6h-.8L91.32,8.11h0l0,1.16V13Z"/><path class="cls-10" d="M101.46,12.22a3.12,3.12,0,0,1-4.4,0A3.07,3.07,0,0,1,96.18,10a3.07,3.07,0,0,1,.88-2.22,3.1,3.1,0,0,1,4.4,0,3.07,3.07,0,0,1,.89,2.22A3.07,3.07,0,0,1,101.46,12.22Zm-3.83-.5a2.31,2.31,0,0,0,3.26,0,2.35,2.35,0,0,0,.67-1.72,2.35,2.35,0,0,0-.67-1.72,2.31,2.31,0,0,0-3.26,0A2.35,2.35,0,0,0,97,10,2.35,2.35,0,0,0,97.63,11.72Z"/></g></g></svg>