<svg xmlns="http://www.w3.org/2000/svg" viewBox="0 0 135 40"><defs><style>.cls-1{fill:#a6a6a6;}.cls-2{fill:#fff;}</style></defs><title>button-app-store</title><g id="Layer_2" data-name="Layer 2"><g id="Layer_1-2" data-name="Layer 1"><path class="cls-1" d="M130.2,40H4.73A4.74,4.74,0,0,1,0,35.27V4.73A4.73,4.73,0,0,1,4.73,0H130.2A4.8,4.8,0,0,1,135,4.73V35.27A4.8,4.8,0,0,1,130.2,40Z"/><path d="M134,35.27a3.83,3.83,0,0,1-3.83,3.83H4.73A3.83,3.83,0,0,1,.89,35.27V4.73A3.84,3.84,0,0,1,4.73.89H130.2A3.83,3.83,0,0,1,134,4.73V35.27Z"/><path class="cls-2" d="M30.13,19.78a5.8,5.8,0,0,1,2.76-4.86,5.93,5.93,0,0,0-4.68-2.53c-2-.21-3.87,1.18-4.88,1.18s-2.57-1.16-4.23-1.12a6.23,6.23,0,0,0-5.24,3.2c-2.27,3.92-.58,9.69,1.59,12.86,1.09,1.55,2.35,3.29,4,3.23s2.23-1,4.19-1,2.51,1,4.21,1,2.84-1.56,3.89-3.13a12.84,12.84,0,0,0,1.78-3.62A5.6,5.6,0,0,1,30.13,19.78Z"/><path class="cls-2" d="M26.93,10.31a5.71,5.71,0,0,0,1.31-4.09,5.81,5.81,0,0,0-3.76,1.94,5.43,5.43,0,0,0-1.34,3.94A4.8,4.8,0,0,0,26.93,10.31Z"/><path class="cls-2" d="M53.72,31.5H51.45L50.2,27.59H45.88L44.69,31.5H42.48L46.77,18.2h2.65ZM49.83,26,48.7,22.48Q48.52,21.95,48,20h0q-.2.85-.63,2.51L46.25,26Z"/><path class="cls-2" d="M64.73,26.59a5.45,5.45,0,0,1-1.32,3.87,3.87,3.87,0,0,1-2.94,1.26,2.94,2.94,0,0,1-2.72-1.36h0v5.05H55.57V25.07q0-1.54-.08-3.16h1.88l.12,1.52h0a3.79,3.79,0,0,1,6.07-.38A5.29,5.29,0,0,1,64.73,26.59Zm-2.17.08a4,4,0,0,0-.63-2.31,2.18,2.18,0,0,0-1.86-.95,2.21,2.21,0,0,0-1.43.52,2.42,2.42,0,0,0-.84,1.37,2.79,2.79,0,0,0-.1.65v1.6a2.56,2.56,0,0,0,.64,1.77A2.13,2.13,0,0,0,60,30a2.18,2.18,0,0,0,1.88-.93A4.09,4.09,0,0,0,62.56,26.67Z"/><path class="cls-2" d="M75.77,26.59a5.45,5.45,0,0,1-1.32,3.87,3.87,3.87,0,0,1-2.94,1.26,2.94,2.94,0,0,1-2.72-1.36h0v5.05H66.61V25.07q0-1.54-.08-3.16h1.88l.12,1.52h0a3.79,3.79,0,0,1,6.07-.38A5.3,5.3,0,0,1,75.77,26.59Zm-2.17.08A4,4,0,0,0,73,24.36a2.18,2.18,0,0,0-1.86-.95,2.21,2.21,0,0,0-1.43.52,2.43,2.43,0,0,0-.84,1.37,2.82,2.82,0,0,0-.1.65v1.6a2.57,2.57,0,0,0,.64,1.77,2.13,2.13,0,0,0,1.67.72,2.18,2.18,0,0,0,1.87-.93A4.09,4.09,0,0,0,73.6,26.67Z"/><path class="cls-2" d="M88.11,27.77a3.55,3.55,0,0,1-1.18,2.76A5.24,5.24,0,0,1,83.3,31.7a6.35,6.35,0,0,1-3.45-.83l.49-1.78a5.84,5.84,0,0,0,3.08.85,2.91,2.91,0,0,0,1.88-.54A1.78,1.78,0,0,0,86,27.95a1.85,1.85,0,0,0-.55-1.36,5.15,5.15,0,0,0-1.84-1q-3.49-1.3-3.49-3.82A3.38,3.38,0,0,1,81.32,19a4.83,4.83,0,0,1,3.26-1,6.46,6.46,0,0,1,3,.63l-.53,1.74a5.24,5.24,0,0,0-2.55-.61,2.57,2.57,0,0,0-1.76.55,1.58,1.58,0,0,0-.53,1.2,1.62,1.62,0,0,0,.61,1.3,6.91,6.91,0,0,0,1.94,1,6.57,6.57,0,0,1,2.53,1.62A3.39,3.39,0,0,1,88.11,27.77Z"/><path class="cls-2" d="M95.16,23.51H92.81v4.66q0,1.78,1.24,1.78a3.83,3.83,0,0,0,.95-.1l.06,1.62a4.82,4.82,0,0,1-1.66.24,2.56,2.56,0,0,1-2-.77,3.78,3.78,0,0,1-.71-2.59V23.51h-1.4v-1.6h1.4V20.15l2.09-.63v2.39h2.35Z"/><path class="cls-2" d="M105.76,26.63a5.27,5.27,0,0,1-1.26,3.63A4.51,4.51,0,0,1,101,31.72a4.29,4.29,0,0,1-3.37-1.4,5.1,5.1,0,0,1-1.25-3.53,5.21,5.21,0,0,1,1.29-3.65,4.48,4.48,0,0,1,3.48-1.42,4.38,4.38,0,0,1,3.4,1.4A5.06,5.06,0,0,1,105.76,26.63Zm-2.21.07a4.32,4.32,0,0,0-.57-2.28,2.11,2.11,0,0,0-1.91-1.15,2.14,2.14,0,0,0-2,1.15,4.4,4.4,0,0,0-.57,2.32A4.32,4.32,0,0,0,99.11,29,2.18,2.18,0,0,0,103,29,4.33,4.33,0,0,0,103.55,26.7Z"/><path class="cls-2" d="M112.69,23.78a3.69,3.69,0,0,0-.67-.06,2,2,0,0,0-1.74.85,3.19,3.19,0,0,0-.53,1.89v5h-2.13l0-6.57q0-1.66-.08-3h1.86l.08,1.84h.06a3.28,3.28,0,0,1,1.07-1.52,2.58,2.58,0,0,1,1.54-.51,3.38,3.38,0,0,1,.53,0Z"/><path class="cls-2" d="M122.23,26.25a5,5,0,0,1-.08,1h-6.4a2.79,2.79,0,0,0,.93,2.17,3.17,3.17,0,0,0,2.09.67,7.08,7.08,0,0,0,2.59-.45l.33,1.48a8,8,0,0,1-3.22.59A4.66,4.66,0,0,1,115,30.37a4.85,4.85,0,0,1-1.27-3.52,5.5,5.5,0,0,1,1.19-3.61,4.09,4.09,0,0,1,3.36-1.54,3.57,3.57,0,0,1,3.14,1.54A5.19,5.19,0,0,1,122.23,26.25Zm-2-.55a2.9,2.9,0,0,0-.41-1.64,1.86,1.86,0,0,0-1.7-.89,2,2,0,0,0-1.7.87,3.17,3.17,0,0,0-.63,1.66Z"/><path class="cls-2" d="M48,11.56a1.69,1.69,0,0,1-.59,1.32,3.48,3.48,0,0,1-2.33.61,11.18,11.18,0,0,1-1.38-.08V7a8.23,8.23,0,0,1,1.63-.14,3.13,3.13,0,0,1,1.81.44,1.46,1.46,0,0,1,.33,2.05,1.66,1.66,0,0,1-.79.57v0a1.79,1.79,0,0,1,.91.52A1.6,1.6,0,0,1,48,11.56Zm-1.29-3q0-1-1.27-1a3.07,3.07,0,0,0-.69.06V9.61h.65a1.5,1.5,0,0,0,1-.28A.9.9,0,0,0,46.76,8.59Zm.19,2.94a1,1,0,0,0-.45-.88,1.91,1.91,0,0,0-1.08-.27H44.8v2.28a3.64,3.64,0,0,0,.64,0,1.85,1.85,0,0,0,1.05-.26A1,1,0,0,0,46.95,11.53Z"/><path class="cls-2" d="M53.17,13.43h-.94l-.08-.54h0a1.62,1.62,0,0,1-1.38.65,1.42,1.42,0,0,1-1.08-.43,1.34,1.34,0,0,1-.37-1A1.47,1.47,0,0,1,50,10.83a3.76,3.76,0,0,1,2-.45V10.3q0-.93-1-.93a2.19,2.19,0,0,0-1.23.35L49.63,9a3,3,0,0,1,1.62-.41q1.85,0,1.85,1.95v1.74A7.37,7.37,0,0,0,53.17,13.43Zm-1.09-1.62v-.73q-1.74,0-1.74,1a.71.71,0,0,0,.2.55.73.73,0,0,0,.51.18,1.05,1.05,0,0,0,.64-.22.89.89,0,0,0,.36-.56A.79.79,0,0,0,52.08,11.81Z"/><path class="cls-2" d="M56.1,7.31a.6.6,0,0,1-.18.46.66.66,0,0,1-.48.17A.6.6,0,0,1,55,7.76a.61.61,0,0,1-.18-.45A.59.59,0,0,1,55,6.87a.68.68,0,0,1,.91,0A.59.59,0,0,1,56.1,7.31ZM56,13.43h-1V8.72h1Z"/><path class="cls-2" d="M61.68,13.43H60.5l-.61-1q-.2-.33-.45-.79h0q-.14.28-.45.79l-.58,1H57.25L58.86,11,57.31,8.72h1.16l.59.94q.17.27.44.75h0q.21-.42.43-.77l.55-.92h1.14L60.09,11Z"/><path class="cls-2" d="M66.51,13.43h-.94l-.08-.54h0a1.62,1.62,0,0,1-1.38.65A1.42,1.42,0,0,1,63,13.11a1.34,1.34,0,0,1-.37-1,1.47,1.47,0,0,1,.72-1.32,3.76,3.76,0,0,1,2-.45V10.3q0-.93-1-.93a2.19,2.19,0,0,0-1.23.35L63,9a3,3,0,0,1,1.62-.41q1.85,0,1.85,1.95v1.74A7.36,7.36,0,0,0,66.51,13.43Zm-1.09-1.62v-.73q-1.74,0-1.74,1a.71.71,0,0,0,.2.55.73.73,0,0,0,.51.18,1.05,1.05,0,0,0,.64-.22.89.89,0,0,0,.36-.56A.79.79,0,0,0,65.43,11.81Z"/><path class="cls-2" d="M70.77,9.64a1.78,1.78,0,0,0-.33,0,1,1,0,0,0-.85.42,1.58,1.58,0,0,0-.26.93v2.47h-1V10.2q0-.82,0-1.48h.91l0,.9h0a1.59,1.59,0,0,1,.52-.75,1.26,1.26,0,0,1,.76-.25l.26,0Z"/><path class="cls-2" d="M79,13.43H78v-2.7Q78,9.49,77,9.49a1,1,0,0,0-.76.34,1.21,1.21,0,0,0-.29.81v2.8h-1V10.07q0-.62,0-1.35h.92l0,.74h0a1.5,1.5,0,0,1,.54-.57,1.76,1.76,0,0,1,.95-.26,1.5,1.5,0,0,1,1.1.43A2.08,2.08,0,0,1,79,10.61Z"/><path class="cls-2" d="M84.41,13.43h-.94l-.08-.54h0a1.62,1.62,0,0,1-1.38.65,1.42,1.42,0,0,1-1.08-.43,1.34,1.34,0,0,1-.37-1,1.47,1.47,0,0,1,.72-1.32,3.75,3.75,0,0,1,2-.45V10.3q0-.93-1-.93a2.2,2.2,0,0,0-1.23.35L80.88,9a3,3,0,0,1,1.62-.41q1.85,0,1.85,1.95v1.74A7.36,7.36,0,0,0,84.41,13.43Zm-1.09-1.62v-.73q-1.74,0-1.74,1a.71.71,0,0,0,.2.55.73.73,0,0,0,.51.18,1.06,1.06,0,0,0,.64-.22A.9.9,0,0,0,83.3,12,.73.73,0,0,0,83.32,11.81Z"/></g></g></svg>