<svg xmlns="http://www.w3.org/2000/svg" viewBox="0 0 46.03 57.09"><defs><style>.cls-1{fill:#fff;}.cls-2{fill:#ffb933;}.cls-3{fill:#fc6e51;}.cls-4{fill:#acaf48;}.cls-5{fill:#434a54;}.cls-6{fill:#888a39;}.cls-7{opacity:0.1;}.cls-8{fill:#e6e6e6;}</style></defs><title>icon-results</title><g id="Layer_2" data-name="Layer 2"><g id="Layer_1-2" data-name="Layer 1"><g id="invoice"><polygon class="cls-1" points="46.03 40 15.68 40 15.68 0 40.51 0 46.03 5.52 46.03 40"/><polyline class="cls-2" points="40.51 0 40.51 5.52 46.03 5.52"/><polygon class="cls-3" points="28.79 7.04 19.13 7.04 19.13 4.28 28.79 4.28 28.79 7.04 28.79 7.04"/><polygon class="cls-4" points="27.14 28.9 22.51 33.53 21.53 32.56 26.17 27.92 27.14 28.9 27.14 28.9"/><polygon class="cls-4" points="31.23 29.3 26.15 29.3 26.15 27.92 31.23 27.92 31.23 29.3 31.23 29.3"/><polygon class="cls-4" points="42.62 17.89 31.22 29.3 30.24 28.32 41.65 16.92 42.62 17.89 42.62 17.89"/><polygon class="cls-5" points="41.2 32.16 20.51 32.16 20.51 12.85 20.51 11.47 19.13 11.47 19.13 33.53 42.58 33.53 42.58 32.16 41.2 32.16"/></g><g id="dollar-bills"><rect class="cls-6" y="34.57" width="30.58" height="14.33"/><rect class="cls-4" y="48" width="30.58" height="9.08"/><rect class="cls-4" y="34.57" width="30.58" height="0.96"/><rect class="cls-4" x="29.62" y="35.53" width="0.96" height="12.42"/><rect class="cls-4" y="35.53" width="0.96" height="12.42"/><path class="cls-4" d="M29.62,44.13a3.82,3.82,0,0,0-3.82,3.82h3.82Z"/><path class="cls-4" d="M29.62,39.35a3.82,3.82,0,0,1-3.82-3.82h3.82Z"/><path class="cls-4" d="M1,44.13a3.82,3.82,0,0,1,3.82,3.82H1Z"/><path class="cls-4" d="M1,39.35a3.82,3.82,0,0,0,3.82-3.82H1Z"/><circle class="cls-4" cx="22.93" cy="41.74" r="1.43"/><circle class="cls-4" cx="7.64" cy="41.74" r="1.43"/><circle class="cls-4" cx="15.29" cy="41.74" r="4.3"/><g class="cls-7"><rect y="48.05" width="30.58" height="0.96"/></g><g class="cls-7"><rect y="49.86" width="30.58" height="0.96"/></g><g class="cls-7"><rect y="51.67" width="30.58" height="0.96"/></g><g class="cls-7"><rect y="55.3" width="30.58" height="0.96"/></g><g class="cls-7"><rect y="53.48" width="30.58" height="0.96"/></g><rect class="cls-1" x="13.38" y="34.09" width="3.82" height="13.92"/><rect class="cls-8" x="13.38" y="48.01" width="3.82" height="9.08"/></g></g></g></svg>