<svg xmlns="http://www.w3.org/2000/svg" viewBox="0 0 39.44 57.09"><defs><style>.cls-1{fill:#fff;}.cls-2{fill:#434a54;}.cls-3{fill:#bdc3c7;}.cls-4{fill:#f6cbad;}.cls-5{fill:#eaad82;}.cls-6{fill:#dbb59a;}.cls-7{fill:#55beff;}.cls-8{fill:none;stroke:#ff4800;stroke-miterlimit:10;stroke-width:0.5px;}</style></defs><title>icon-scan</title><g id="Layer_2" data-name="Layer 2"><g id="Layer_1-2" data-name="Layer 1"><g id="mobile-shopping-discount"><rect class="cls-1" x="23.4" width="16.04" height="29.48" rx="2.06" ry="2.06"/><rect class="cls-2" x="24.81" y="4.57" width="13.22" height="20.33"/><circle class="cls-3" cx="31.42" cy="2.23" r="0.52"/><path class="cls-3" d="M30.15,26.6h2.54a.56.56,0,0,1,.56.56v.17a.56.56,0,0,1-.56.56H30.15a.57.57,0,0,1-.57-.57v-.17A.56.56,0,0,1,30.15,26.6Z"/><g id="scan-qr-code"><path class="cls-1" d="M29.58,10.13H27.12v2.46h2.46Zm.61-.61V13.2H26.5V9.52Zm-2.46,1.23H29V12H27.73Z"/><path class="cls-1" d="M35.72,10.13H33.26v2.46h2.46Zm.61-.61V13.2H32.65V9.52Zm-2.46,1.23H35.1V12H33.87Z"/><rect class="cls-1" x="30.8" y="9.52" width="0.61" height="0.61"/><rect class="cls-1" x="31.42" y="10.13" width="0.61" height="0.61"/><rect class="cls-1" x="30.8" y="10.75" width="0.61" height="0.61"/><rect class="cls-1" x="31.42" y="11.36" width="0.61" height="0.61"/><rect class="cls-1" x="30.8" y="11.98" width="0.61" height="0.61"/><rect class="cls-1" x="31.42" y="12.59" width="0.61" height="0.61"/><rect class="cls-1" x="30.8" y="13.2" width="0.61" height="0.61"/><rect class="cls-1" x="27.73" y="13.82" width="0.61" height="0.61"/><rect class="cls-1" x="26.5" y="13.82" width="0.61" height="0.61"/><rect class="cls-1" x="28.96" y="13.82" width="0.61" height="0.61"/><rect class="cls-1" x="30.19" y="13.82" width="0.61" height="0.61"/><rect class="cls-1" x="32.65" y="13.82" width="0.61" height="0.61"/><rect class="cls-1" x="33.87" y="13.82" width="0.61" height="0.61"/><rect class="cls-1" x="35.1" y="13.82" width="0.61" height="0.61"/><path class="cls-1" d="M29.58,16.28H27.12v2.46h2.46Zm.61-.61v3.69H26.5V15.66Zm-2.46,1.23H29v1.23H27.73Z"/><rect class="cls-1" x="30.8" y="14.43" width="0.61" height="0.61"/><rect class="cls-1" x="31.42" y="15.05" width="0.61" height="0.61"/><rect class="cls-1" x="30.8" y="15.66" width="0.61" height="0.61"/><rect class="cls-1" x="31.42" y="16.28" width="0.61" height="0.61"/><rect class="cls-1" x="30.8" y="16.89" width="0.61" height="0.61"/><rect class="cls-1" x="31.42" y="17.5" width="0.61" height="0.61"/><rect class="cls-1" x="30.8" y="18.12" width="0.61" height="0.61"/><rect class="cls-1" x="31.42" y="18.73" width="0.61" height="0.61"/><rect class="cls-1" x="35.72" y="14.43" width="0.61" height="0.61"/><rect class="cls-1" x="27.12" y="14.43" width="0.61" height="0.61"/><rect class="cls-1" x="29.58" y="14.43" width="0.61" height="0.61"/><rect class="cls-1" x="32.03" y="14.43" width="0.61" height="0.61"/><rect class="cls-1" x="33.26" y="14.43" width="0.61" height="0.61"/><rect class="cls-1" x="34.49" y="14.43" width="0.61" height="0.61"/><rect class="cls-1" x="35.72" y="15.66" width="0.61" height="0.61"/><rect class="cls-1" x="32.03" y="15.66" width="0.61" height="0.61"/><rect class="cls-1" x="32.65" y="15.05" width="0.61" height="0.61"/><rect class="cls-1" x="33.26" y="15.66" width="0.61" height="0.61"/><rect class="cls-1" x="34.49" y="15.66" width="0.61" height="0.61"/><rect class="cls-1" x="35.1" y="15.05" width="0.61" height="0.61"/><rect class="cls-1" x="35.72" y="16.89" width="0.61" height="0.61"/><rect class="cls-1" x="32.03" y="16.89" width="0.61" height="0.61"/><rect class="cls-1" x="32.65" y="16.28" width="0.61" height="0.61"/><rect class="cls-1" x="33.87" y="16.28" width="0.61" height="0.61"/><rect class="cls-1" x="34.49" y="16.89" width="0.61" height="0.61"/><rect class="cls-1" x="35.1" y="16.28" width="0.61" height="0.61"/><rect class="cls-1" x="35.72" y="18.12" width="0.61" height="0.61"/><rect class="cls-1" x="32.65" y="17.5" width="0.61" height="0.61"/><rect class="cls-1" x="33.26" y="18.12" width="0.61" height="0.61"/><rect class="cls-1" x="33.87" y="17.5" width="0.61" height="0.61"/><rect class="cls-1" x="34.49" y="18.12" width="0.61" height="0.61"/><rect class="cls-1" x="32.65" y="18.73" width="0.61" height="0.61"/><rect class="cls-1" x="33.87" y="18.73" width="0.61" height="0.61"/><rect class="cls-1" x="35.1" y="18.73" width="0.61" height="0.61"/><path class="cls-1" d="M35.1,18.73"/><polygon class="cls-1" points="37.33 20.34 36.1 20.34 36.1 20.75 37.73 20.75 37.73 19.32 37.33 19.32 37.33 20.34"/><polygon class="cls-1" points="25.51 19.32 25.1 19.32 25.1 20.75 26.73 20.75 26.73 20.34 25.51 20.34 25.51 19.32"/><polygon class="cls-1" points="36.1 8.12 36.1 8.52 37.33 8.52 37.33 9.54 37.73 9.54 37.73 8.12 36.1 8.12"/><polygon class="cls-1" points="25.1 9.54 25.51 9.54 25.51 8.52 26.73 8.52 26.73 8.12 25.1 8.12 25.1 9.54"/></g></g><g id="mobile-shopping-hand"><path class="cls-4" d="M24.46,28.1a2.4,2.4,0,0,1-3.35.48l-4-3a2.39,2.39,0,1,1,2.87-3.83l4,3A2.4,2.4,0,0,1,24.46,28.1Z"/><path class="cls-4" d="M24.46,34.26a2.4,2.4,0,0,1-3.35.48l-4-3a2.39,2.39,0,1,1,2.87-3.83l4,3A2.4,2.4,0,0,1,24.46,34.26Z"/><path class="cls-4" d="M24.46,40.43a2.4,2.4,0,0,1-3.35.48l-4-3A2.39,2.39,0,1,1,19.95,34l4,3A2.4,2.4,0,0,1,24.46,40.43Z"/><path class="cls-5" d="M17.07,25.55a2.39,2.39,0,1,1,2.87-3.83l2.53,1.9V29a2.38,2.38,0,0,1-1.38-.47Z"/><path class="cls-5" d="M17.07,31.71a2.39,2.39,0,1,1,2.87-3.83l2.53,1.9v5.43a2.38,2.38,0,0,1-1.38-.48Z"/><path class="cls-5" d="M17.07,37.88A2.39,2.39,0,1,1,19.95,34l2.53,1.9v5.43a2.37,2.37,0,0,1-1.38-.48Z"/><path class="cls-4" d="M20.18,38.65V41.4a6.92,6.92,0,0,1-6.83,6.51v7.57l-12-1.76V38.65Z"/><path class="cls-6" d="M12.42,46C9.11,49.51,2,48.19,2,48.19l5-7.44H20.18v.8a6.69,6.69,0,0,1-2,4.46Z"/><g id="mobile"><path class="cls-2" d="M20.18,11.09h-13A2.25,2.25,0,0,0,5,13.33V40.95a2.25,2.25,0,0,0,2.24,2.24h13a2.24,2.24,0,0,0,2.24-2.24V13.33A2.24,2.24,0,0,0,20.18,11.09Z"/><rect class="cls-7" x="6.49" y="16.07" width="14.39" height="22.13"/><circle class="cls-3" cx="13.69" cy="13.52" r="0.56"/><rect class="cls-3" x="11.69" y="40.06" width="4" height="1.41" rx="0.61" ry="0.61"/></g><g id="mobile-shopping-discount-2" data-name="mobile-shopping-discount"><rect class="cls-1" x="8.22" y="17.62" width="10.93" height="20.09" rx="1.4" ry="1.4"/><rect class="cls-2" x="9.18" y="20.74" width="9.01" height="13.86"/><circle class="cls-3" cx="13.69" cy="19.14" r="0.35"/><path class="cls-3" d="M12.82,35.76h1.73a.38.38,0,0,1,.38.38v.12a.38.38,0,0,1-.38.38H12.82a.39.39,0,0,1-.39-.39v-.11a.39.39,0,0,1,.39-.39Z"/><g id="scan-qr-code-2" data-name="scan-qr-code"><path class="cls-1" d="M12.43,24.53H10.76V26.2h1.67Zm.42-.42v2.51H10.34V24.11Zm-1.67.84H12v.84h-.84Z"/><path class="cls-1" d="M16.62,24.53H14.94V26.2h1.67Zm.42-.42v2.51H14.53V24.11Zm-1.67.84h.84v.84h-.84Z"/><rect class="cls-1" x="13.27" y="24.11" width="0.42" height="0.42"/><rect class="cls-1" x="13.69" y="24.53" width="0.42" height="0.42"/><rect class="cls-1" x="13.27" y="24.95" width="0.42" height="0.42"/><rect class="cls-1" x="13.69" y="25.37" width="0.42" height="0.42"/><rect class="cls-1" x="13.27" y="25.78" width="0.42" height="0.42"/><rect class="cls-1" x="13.69" y="26.2" width="0.42" height="0.42"/><rect class="cls-1" x="13.27" y="26.62" width="0.42" height="0.42"/><rect class="cls-1" x="11.18" y="27.04" width="0.42" height="0.42"/><rect class="cls-1" x="10.34" y="27.04" width="0.42" height="0.42"/><rect class="cls-1" x="12.01" y="27.04" width="0.42" height="0.42"/><rect class="cls-1" x="12.85" y="27.04" width="0.42" height="0.42"/><rect class="cls-1" x="14.53" y="27.04" width="0.42" height="0.42"/><rect class="cls-1" x="15.36" y="27.04" width="0.42" height="0.42"/><rect class="cls-1" x="16.2" y="27.04" width="0.42" height="0.42"/><path class="cls-1" d="M12.43,28.72H10.76v1.67h1.67Zm.42-.42v2.51H10.34V28.3Zm-1.67.84H12V30h-.84Z"/><rect class="cls-1" x="13.27" y="27.46" width="0.42" height="0.42"/><rect class="cls-1" x="13.69" y="27.88" width="0.42" height="0.42"/><rect class="cls-1" x="13.27" y="28.3" width="0.42" height="0.42"/><rect class="cls-1" x="13.69" y="28.72" width="0.42" height="0.42"/><rect class="cls-1" x="13.27" y="29.13" width="0.42" height="0.42"/><rect class="cls-1" x="13.69" y="29.55" width="0.42" height="0.42"/><rect class="cls-1" x="13.27" y="29.97" width="0.42" height="0.42"/><rect class="cls-1" x="13.69" y="30.39" width="0.42" height="0.42"/><rect class="cls-1" x="16.62" y="27.46" width="0.42" height="0.42"/><rect class="cls-1" x="10.76" y="27.46" width="0.42" height="0.42"/><rect class="cls-1" x="12.43" y="27.46" width="0.42" height="0.42"/><rect class="cls-1" x="14.11" y="27.46" width="0.42" height="0.42"/><rect class="cls-1" x="14.94" y="27.46" width="0.42" height="0.42"/><rect class="cls-1" x="15.78" y="27.46" width="0.42" height="0.42"/><rect class="cls-1" x="16.62" y="28.3" width="0.42" height="0.42"/><rect class="cls-1" x="14.11" y="28.3" width="0.42" height="0.42"/><rect class="cls-1" x="14.53" y="27.88" width="0.42" height="0.42"/><rect class="cls-1" x="14.94" y="28.3" width="0.42" height="0.42"/><rect class="cls-1" x="15.78" y="28.3" width="0.42" height="0.42"/><rect class="cls-1" x="16.2" y="27.88" width="0.42" height="0.42"/><rect class="cls-1" x="16.62" y="29.13" width="0.42" height="0.42"/><rect class="cls-1" x="14.11" y="29.13" width="0.42" height="0.42"/><rect class="cls-1" x="14.53" y="28.72" width="0.42" height="0.42"/><rect class="cls-1" x="15.36" y="28.72" width="0.42" height="0.42"/><rect class="cls-1" x="15.78" y="29.13" width="0.42" height="0.42"/><rect class="cls-1" x="16.2" y="28.72" width="0.42" height="0.42"/><rect class="cls-1" x="16.62" y="29.97" width="0.42" height="0.42"/><rect class="cls-1" x="14.53" y="29.55" width="0.42" height="0.42"/><rect class="cls-1" x="14.94" y="29.97" width="0.42" height="0.42"/><rect class="cls-1" x="15.36" y="29.55" width="0.42" height="0.42"/><rect class="cls-1" x="15.78" y="29.97" width="0.42" height="0.42"/><rect class="cls-1" x="14.53" y="30.39" width="0.42" height="0.42"/><rect class="cls-1" x="15.36" y="30.39" width="0.42" height="0.42"/><rect class="cls-1" x="16.2" y="30.39" width="0.42" height="0.42"/><path class="cls-1" d="M16.2,30.39"/><polygon class="cls-1" points="17.72 31.49 16.88 31.49 16.88 31.77 17.99 31.77 17.99 30.79 17.72 30.79 17.72 31.49"/><polygon class="cls-1" points="9.66 30.79 9.38 30.79 9.38 31.77 10.49 31.77 10.49 31.49 9.66 31.49 9.66 30.79"/><polygon class="cls-1" points="16.88 23.15 16.88 23.43 17.72 23.43 17.72 24.13 17.99 24.13 17.99 23.15 16.88 23.15"/><polygon class="cls-1" points="9.38 24.13 9.66 24.13 9.66 23.43 10.49 23.43 10.49 23.15 9.38 23.15 9.38 24.13"/></g></g><path class="cls-4" d="M10,29.59h1.15a4.15,4.15,0,0,1,4.15,4.15v5.67a0,0,0,0,1,0,0H12.12A2.11,2.11,0,0,1,10,37.3V29.59A0,0,0,0,1,10,29.59Z" transform="translate(47.16 21.84) rotate(90)"/><path class="cls-4" d="M5,22.12v15l3.25-4.51,3.26,1.1V41.4c0,7.2-7.85,6.51-10.15,6.51v-18S1.41,23,5,22.12Z"/><rect class="cls-1" x="1.33" y="49.44" width="12.02" height="2.94"/><rect class="cls-2" y="52.17" width="14.67" height="4.92"/></g><line class="cls-8" x1="6.49" y1="25.58" x2="20.88" y2="25.58"/></g></g></svg>