<svg xmlns="http://www.w3.org/2000/svg" viewBox="0 0 51.69 55.71"><defs><style>.cls-1{fill:#bdc3c7;}.cls-2{fill:#434a54;}.cls-3{fill:#fff;}.cls-4{fill:#e6e6e6;}.cls-5{fill:#acaf48;}</style></defs><title>icon-buy</title><g id="Layer_2" data-name="Layer 2"><g id="Layer_1-2" data-name="Layer 1"><g id="cash-register"><path class="cls-1" d="M23,8.94a.53.53,0,0,0,.53-.53V5.36a.53.53,0,1,0-1.05,0V8.41a.53.53,0,0,0,.53.53Z"/><rect class="cls-2" x="16.21" y="0.53" width="13.23" height="4.58"/><path class="cls-3" d="M16.21,5.63a.53.53,0,0,1-.53-.53V.53A.53.53,0,0,1,16.21,0H29.44A.53.53,0,0,1,30,.53V5.11a.53.53,0,0,1-.53.53Zm12.7-1.05V1.05H16.73V4.58Z"/><rect class="cls-1" x="14.19" y="27.52" width="35.71" height="11.05"/><rect class="cls-2" x="12.41" y="29.66" width="39.28" height="11.05"/><path class="cls-4" d="M49.9,10.33a2.76,2.76,0,0,0-2.75-2.76H16.94a2.76,2.76,0,0,0-2.75,2.76V28.28H49.9Z"/><rect class="cls-2" x="32.05" y="10.33" width="15.19" height="6.9"/><rect class="cls-5" x="33.48" y="11.76" width="12.33" height="4.05"/><rect class="cls-1" x="44.48" y="18.62" width="2.76" height="1.38"/><rect class="cls-1" x="44.48" y="21.38" width="2.76" height="1.38"/><rect class="cls-1" x="44.48" y="24.14" width="2.76" height="1.38"/><rect class="cls-1" x="40.33" y="18.62" width="2.76" height="1.38"/><rect class="cls-1" x="40.33" y="21.38" width="2.76" height="1.38"/><rect class="cls-1" x="40.33" y="24.14" width="2.76" height="1.38"/><rect class="cls-1" x="36.19" y="18.62" width="2.76" height="1.38"/><rect class="cls-1" x="36.19" y="21.38" width="2.76" height="1.38"/><rect class="cls-1" x="36.19" y="24.14" width="2.76" height="1.38"/><rect class="cls-1" x="32.05" y="18.62" width="2.76" height="1.38"/><rect class="cls-1" x="32.05" y="21.38" width="2.76" height="1.38"/><rect class="cls-1" x="32.05" y="24.14" width="2.76" height="1.38"/><polygon class="cls-3" points="27.91 10.33 26.53 11.71 25.14 10.33 23.77 11.71 22.38 10.33 21 11.71 19.62 10.33 18.24 11.71 18.24 20 27.91 20 27.91 10.33"/><polygon class="cls-4" points="18.24 18.62 18.24 20 27.91 20 27.91 18.62 29.29 18.62 29.29 21.38 16.86 21.38 16.86 18.62 18.24 18.62"/><rect class="cls-2" x="19.62" y="16.56" width="6.9" height="1.38"/><rect class="cls-2" x="19.62" y="13.8" width="6.9" height="1.38"/><rect class="cls-3" x="27.76" y="33.88" width="8.57" height="2.86"/><rect class="cls-3" x="34.99" y="12.92" width="2.03" height="1.14"/><rect class="cls-3" x="39.05" y="12.92" width="5.68" height="1.14"/></g><g id="add-shopping-bag"><path class="cls-3" d="M29,55.71H.78A.78.78,0,0,1,0,54.78l3.12-24.9a.78.78,0,0,1,.78-.78H25.83a.78.78,0,0,1,.78.78l3.12,24.9a.78.78,0,0,1-.77.93"/><path class="cls-2" d="M20.35,35.36a.78.78,0,0,1-.78-.78V26a4.7,4.7,0,1,0-9.39,0v8.61a.78.78,0,0,1-1.57,0V26a6.26,6.26,0,1,1,12.52,0v8.61a.78.78,0,0,1-.78.78"/></g></g></g></svg>