<svg xmlns="http://www.w3.org/2000/svg" viewBox="0 0 61.65 49.99"><defs><style>.cls-1{fill:#fff;}</style></defs><title>icon-twitter</title><g id="Layer_2" data-name="Layer 2"><g id="Layer_1-2" data-name="Layer 1"><path class="cls-1" d="M20.42,50c22.6-.57,34.95-19.47,34.95-35.9q0-.82,0-1.63a25.68,25.68,0,0,0,6.31-6.53,25.34,25.34,0,0,1-7.26,2,12.66,12.66,0,0,0,5.56-7,25.38,25.38,0,0,1-8,3.06A12.65,12.65,0,0,0,30.35,15.5,35.94,35.94,0,0,1,4.28,2.31,12.62,12.62,0,0,0,8.19,19.17a12.63,12.63,0,0,1-5.73-1.58c0,.05,0,.11,0,.16A12.64,12.64,0,0,0,12.61,30.12a12.68,12.68,0,0,1-5.71.22,12.66,12.66,0,0,0,11.82,8.77A25.42,25.42,0,0,1,3,44.51a25.7,25.7,0,0,1-3-.18H0A35.85,35.85,0,0,0,18.64,50h1.78"/></g></g></svg>