<svg xmlns="http://www.w3.org/2000/svg" viewBox="0 0 50 50"><defs><style>.cls-1{fill:#fff;}</style></defs><title>icon-instagram</title><g id="Layer_2" data-name="Layer 2"><g id="Layer_1-2" data-name="Layer 1"><path class="cls-1" d="M25,12.39A12.61,12.61,0,1,0,37.61,25,12.62,12.62,0,0,0,25,12.39Zm0,21.28A8.67,8.67,0,1,1,33.68,25,8.68,8.68,0,0,1,25,33.68ZM38.76,8.83a3.32,3.32,0,1,0,3.32,3.32A3.32,3.32,0,0,0,38.76,8.83Zm-.05,3.32a.05.05,0,0,1,.1,0C38.82,12.21,38.71,12.21,38.71,12.15ZM37.36,0H12.64A12.66,12.66,0,0,0,0,12.64V37.36A12.66,12.66,0,0,0,12.64,50H37.36A12.66,12.66,0,0,0,50,37.36V12.64A12.66,12.66,0,0,0,37.36,0Zm8.71,37.36a8.72,8.72,0,0,1-8.71,8.71H12.64a8.72,8.72,0,0,1-8.71-8.71V12.64a8.72,8.72,0,0,1,8.71-8.71H37.36a8.72,8.72,0,0,1,8.71,8.71Z"/></g></g></svg>