<svg xmlns="http://www.w3.org/2000/svg" viewBox="0 0 39.14 47.38"><defs><style>.cls-1{fill:#d1501d;}.cls-2{fill:#e45820;}.cls-3{fill:#ff5c08;}.cls-4{fill:#db541f;}.cls-5{fill:#fff;}.cls-6{fill:#434a54;}.cls-7{fill:#36afc7;}</style></defs><title>icon-package</title><g id="Layer_2" data-name="Layer 2"><g id="Layer_1-2" data-name="Layer 1"><g id="add-shopping-bag"><path class="cls-1" d="M9.66,8.87a.66.66,0,0,0-.08.2,4.08,4.08,0,0,0,1.59,4.07l.22.15A4.07,4.07,0,0,0,16,13.08a.67.67,0,0,0,.19-.22.9.9,0,0,0,.76,0,.69.69,0,0,0,.38-.58.7.7,0,0,0,0-.24l0-.09a.57.57,0,0,0,.34-.37,1,1,0,0,0-.19-.86.66.66,0,0,0,.15-.34,4.08,4.08,0,0,0-1.75-3.84l-.11-.08a4.08,4.08,0,0,0-3.63-.36.66.66,0,0,0-.3.23A2.44,2.44,0,0,0,10.08,7a2.72,2.72,0,0,0-.48.54,1.25,1.25,0,0,0-.22.67A.85.85,0,0,0,9.66,8.87Z"/><path class="cls-2" d="M14.14,13a.66.66,0,0,0,.09.19,4.08,4.08,0,0,0,4,1.67l.26-.06a4.07,4.07,0,0,0,3.06-3.49.67.67,0,0,0,0-.29.9.9,0,0,0,.51-.56.69.69,0,0,0-.16-.67.7.7,0,0,0-.19-.14l-.09,0a.57.57,0,0,0,0-.5,1,1,0,0,0-.75-.46.66.66,0,0,0-.15-.34,4.08,4.08,0,0,0-4-1.4l-.13,0A4.08,4.08,0,0,0,13.82,9.3a.66.66,0,0,0,0,.37,2.44,2.44,0,0,0-.67,1.75,2.72,2.72,0,0,0,.06.72,1.25,1.25,0,0,0,.33.62A.85.85,0,0,0,14.14,13Z"/><path class="cls-3" d="M7.42,14.39a.66.66,0,0,0,.12.18,4.08,4.08,0,0,0,4.2,1.18l.26-.09a4.07,4.07,0,0,0,2.63-3.83.67.67,0,0,0-.06-.28.9.9,0,0,0,.44-.61.69.69,0,0,0-.24-.65.7.7,0,0,0-.21-.12l-.1,0a.57.57,0,0,0-.09-.5,1,1,0,0,0-.8-.37A.66.66,0,0,0,13.38,9,4.08,4.08,0,0,0,9.26,8l-.13,0a4.08,4.08,0,0,0-2.47,2.68.66.66,0,0,0,0,.38,2.44,2.44,0,0,0-.45,1.81,2.72,2.72,0,0,0,.15.71,1.25,1.25,0,0,0,.4.57A.85.85,0,0,0,7.42,14.39Z"/><path class="cls-4" d="M20.66,9.87a.66.66,0,0,0-.08.2,4.08,4.08,0,0,0,1.59,4.07l.22.15A4.07,4.07,0,0,0,27,14.08a.67.67,0,0,0,.19-.22.9.9,0,0,0,.76,0,.69.69,0,0,0,.38-.58.7.7,0,0,0,0-.24l0-.09a.57.57,0,0,0,.34-.37,1,1,0,0,0-.19-.86.66.66,0,0,0,.15-.34,4.08,4.08,0,0,0-1.75-3.84l-.11-.08a4.08,4.08,0,0,0-3.63-.36.66.66,0,0,0-.3.23A2.44,2.44,0,0,0,21.08,8a2.72,2.72,0,0,0-.48.54,1.25,1.25,0,0,0-.22.67A.85.85,0,0,0,20.66,9.87Z"/><path class="cls-2" d="M25.14,14a.66.66,0,0,0,.09.19,4.08,4.08,0,0,0,4,1.67l.26-.06a4.07,4.07,0,0,0,3.06-3.49.67.67,0,0,0,0-.29.9.9,0,0,0,.51-.56.69.69,0,0,0-.16-.67.7.7,0,0,0-.19-.14l-.09,0a.57.57,0,0,0,0-.5,1,1,0,0,0-.75-.46.66.66,0,0,0-.15-.34,4.08,4.08,0,0,0-4-1.4l-.13,0a4.08,4.08,0,0,0-2.77,2.37.66.66,0,0,0,0,.37,2.44,2.44,0,0,0-.67,1.75,2.72,2.72,0,0,0,.06.72,1.25,1.25,0,0,0,.33.62A.85.85,0,0,0,25.14,14Z"/><path class="cls-3" d="M18.42,15.39a.66.66,0,0,0,.12.18,4.08,4.08,0,0,0,4.2,1.18l.26-.09a4.07,4.07,0,0,0,2.63-3.83.67.67,0,0,0-.06-.28.9.9,0,0,0,.44-.61.69.69,0,0,0-.24-.65.7.7,0,0,0-.21-.12l-.1,0a.57.57,0,0,0-.09-.5,1,1,0,0,0-.8-.37.66.66,0,0,0-.18-.32A4.08,4.08,0,0,0,20.26,9l-.13,0a4.08,4.08,0,0,0-2.47,2.68.66.66,0,0,0,0,.38,2.44,2.44,0,0,0-.45,1.81,2.72,2.72,0,0,0,.15.71,1.25,1.25,0,0,0,.4.57A.85.85,0,0,0,18.42,15.39Z"/><path class="cls-5" d="M38.11,47.38H1a1,1,0,0,1-1-1.22l4.1-32.76a1,1,0,0,1,1-1H34a1,1,0,0,1,1,1l4.1,32.76a1,1,0,0,1-1,1.22"/><path class="cls-6" d="M26.78,20.6a1,1,0,0,1-1-1V8.24a6.18,6.18,0,1,0-12.36,0V19.57a1,1,0,0,1-2.06,0V8.24a8.24,8.24,0,1,1,16.48,0V19.57a1,1,0,0,1-1,1"/><path class="cls-7" d="M10.46,35.83a1.58,1.58,0,0,0,.1.5,9.7,9.7,0,0,0,8.35,6.15l.64,0a9.67,9.67,0,0,0,9-6.31,1.59,1.59,0,0,0,.09-.68,2.13,2.13,0,0,0,1.5-1,1.63,1.63,0,0,0,0-1.65,1.67,1.67,0,0,0-.36-.43l-.19-.14a1.37,1.37,0,0,0,.22-1.18,2.4,2.4,0,0,0-1.47-1.5,1.58,1.58,0,0,0-.14-.87,9.69,9.69,0,0,0-8.38-5.5h-.33a9.68,9.68,0,0,0-7.73,3.88,1.58,1.58,0,0,0-.31.84c-1.22.56-2.11,2.18-2.53,3.65a6.46,6.46,0,0,0-.27,1.7,3,3,0,0,0,.41,1.61A2,2,0,0,0,10.46,35.83Z"/><ellipse class="cls-5" cx="18.44" cy="30.44" rx="0.44" ry="0.36"/><path class="cls-5" d="M15.69,35.55l-.06.11-.24.41-.17.26a1.2,1.2,0,0,1-.22.27.17.17,0,0,1-.17,0,.51.51,0,0,1-.33-.25h0a.71.71,0,0,1,0-.13c0-.06,0-.13,0-.19s0-.06,0-.08,0,0-.06,0l-.37.38-.26.22-.05,0a.08.08,0,0,1-.07,0,.8.8,0,0,1-.26-.26.37.37,0,0,1-.06-.23.68.68,0,0,1,0-.12,4.12,4.12,0,0,1,.31-.7c.08-.14.16-.29.25-.42a1.84,1.84,0,0,1,.28-.33.56.56,0,0,1,.17-.11.21.21,0,0,1,.13,0,1.19,1.19,0,0,1,.44.2h0l.06,0a.13.13,0,0,1,.13-.07,1,1,0,0,1,.48.43c0,.08,0,.12-.1.12s-.12,0-.17.13a4.41,4.41,0,0,0-.23.56l-.11.33,0,.12a.79.79,0,0,0,0,.1h0a.66.66,0,0,0,.1-.1,5.88,5.88,0,0,0,.46-.71C15.56,35.38,15.78,35.34,15.69,35.55ZM14.78,35a.1.1,0,0,0,0-.09.06.06,0,0,0-.06,0,.58.58,0,0,0-.15.09,2.39,2.39,0,0,0-.23.25,4.13,4.13,0,0,0-.3.45,3.23,3.23,0,0,0-.22.42.56.56,0,0,0,0,.15s0,0,0,0l0,0,.2-.19.26-.28.22-.25,0,0C14.62,35.37,14.71,35.2,14.78,35Z"/><path class="cls-5" d="M16.52,35.55c-.12.21-.48,1-.8,1-1-.26-.17-1.46-.13-1.92,0-.05,0-.07,0-.09s.75-.09.6.3a3.81,3.81,0,0,0-.44,1.45c.2.13.6-.7.67-.81S16.61,35.36,16.52,35.55Z"/><path class="cls-5" d="M15.78,34.45c-.07,0,0-.23.1-.29a1.91,1.91,0,0,1,.77-.09c.08,0,0,.25-.07.22A2.64,2.64,0,0,0,15.78,34.45Z"/><path class="cls-5" d="M13.32,29.77c-1.71-.66-3.66,4.92-2.1,4.68a1.33,1.33,0,0,0,.63-.32,7.25,7.25,0,0,0,1.38-1.66c.11-.17.27.05.18.16a8.79,8.79,0,0,1-1.33,1.58,1.94,1.94,0,0,1-.42.3,1.45,1.45,0,0,1-.32.13c-2.75.69-.51-6,1.37-5.54a1.77,1.77,0,0,1,.38.14l.18.11c0-.11,0-.17.14-.19a.84.84,0,0,1,.72.34c.24.6-1,1.34-1.35,1.54l-.13.06a.12.12,0,0,1-.13-.2A3.45,3.45,0,0,0,13.32,29.77Z"/><path class="cls-5" d="M16.52,30.86l-.13-.13a.93.93,0,0,1-.23-.43.32.32,0,0,1,0-.26,2.51,2.51,0,0,1,.19-.26,1.62,1.62,0,0,1,.37-.29.23.23,0,0,1,.22,0,1,1,0,0,1,.2.13.29.29,0,0,1,.08.3,6.34,6.34,0,0,1-.34.78c0,.08,0,.08,0,.15s.28.29.41.44a.89.89,0,0,1,.2.31.15.15,0,0,1,0,.09,4.1,4.1,0,0,1-.27.49,10.11,10.11,0,0,0-.53,1.11l0,.18v0c0,.11.07.15.15.1a2.28,2.28,0,0,0,.31-.23c.16-.15.35-.35.5-.51s.27,0,.14.15l-.37.4a2.83,2.83,0,0,1-.57.46,1,1,0,0,1-.22.09.1.1,0,0,1-.08,0,1,1,0,0,1-.46-.48.46.46,0,0,1,0-.33,2.62,2.62,0,0,1,.1-.31c0-.08.19-.51.23-.59l.13-.3.13-.29.17-.37a.08.08,0,0,0,0-.08l-.07-.08a0,0,0,0,0-.08,0c-1.43,2.3-1.51,2.41-1.59,2.51a1.6,1.6,0,0,1-.31.33.22.22,0,0,1-.23,0,.67.67,0,0,1-.4-.36s0,0,0,0,0,0,0,0a.82.82,0,0,1,0-.17l0-.25s0-.08,0-.1-.06,0-.09.05l-.51.46c-.12.1-.24.18-.36.27l-.07,0a.11.11,0,0,1-.09,0,1,1,0,0,1-.32-.36.49.49,0,0,1-.06-.3.78.78,0,0,1,0-.15,5.37,5.37,0,0,1,.46-.89c.11-.18.23-.36.36-.53a2.44,2.44,0,0,1,.39-.41.73.73,0,0,1,.23-.13.28.28,0,0,1,.17,0,1.57,1.57,0,0,1,.56.3h0l.07,0a.17.17,0,0,1,.18-.08,1.28,1.28,0,0,1,.59.61c0,.11,0,.15-.15.14s-.15.05-.23.15a5.66,5.66,0,0,0-.35.71l-.17.42-.07.16a1,1,0,0,0,0,.13h0a.93.93,0,0,0,.14-.12A23.21,23.21,0,0,0,16.51,31C16.53,30.94,16.57,30.92,16.52,30.86Zm-1.91,1a.13.13,0,0,0,0-.12.08.08,0,0,0-.08,0,.74.74,0,0,0-.2.11,3,3,0,0,0-.32.3,5.34,5.34,0,0,0-.43.56,4,4,0,0,0-.32.52.68.68,0,0,0-.07.19s0,.06,0,.05a.14.14,0,0,0,.07,0l.27-.23.36-.35.3-.31,0,0C14.38,32.34,14.51,32.12,14.61,31.9Z"/><path class="cls-5" d="M19.11,32.67c-.17.26-.71,1.26-1.13,1.21-1.31-.42-.1-1.92,0-2.51,0-.07,0-.09,0-.12s1-.06.76.45a5,5,0,0,0-.7,1.86c.25.18.84-.86.94-1S19.25,32.42,19.11,32.67Z"/><path class="cls-5" d="M23.46,32.92l-.35.37a2.65,2.65,0,0,1-.53.42,1,1,0,0,1-.22.06h0c-.66,0-.65-.53-.55-1a6.11,6.11,0,0,1,.46-1.23,1.46,1.46,0,0,0,.2-.41l0,0c-.07,0-.1.1-.15.15a1.5,1.5,0,0,0-.21.2c-.22.32-.47.63-.7,1a4.13,4.13,0,0,0-.64,1.12c0,.08,0,.17-.06.25h0l0,.12a.33.33,0,0,0,0,.18c-.16,0-.31,0-.42-.12a.89.89,0,0,1-.11-.41,1.26,1.26,0,0,1,0-.34v0a4,4,0,0,1,.21-.76,6.52,6.52,0,0,1,.31-.75v0l.22-.47s0,0,0-.05h0s-.07,0-.1.07-.16.19-.24.3c-.2.28-.4.56-.59.84a6.61,6.61,0,0,0-.56,1,2.06,2.06,0,0,0-.11.38v.11a.23.23,0,0,1-.23,0l0,0a.64.64,0,0,1-.24-.12.85.85,0,0,1-.25-.26.28.28,0,0,1,0-.23,6.33,6.33,0,0,1,.26-.87c.13-.35.26-.66.4-1l.13-.22A1,1,0,0,1,19.4,31a.14.14,0,0,1,.12,0,.81.81,0,0,1,.3.11,1.36,1.36,0,0,1,.24.18c.06.07.07.1,0,.17l-.16.29-.37.67a1.39,1.39,0,0,0-.08.19.07.07,0,0,0,0,0l0,0,.17-.24.3-.42.44-.59a4.18,4.18,0,0,1,.32-.35,1.37,1.37,0,0,1,.18-.12c.06,0,.2,0,.25.07a.88.88,0,0,1,.38.3c.08.12-.2.74-.25.86l-.16.38c.21-.31.43-.61.65-.91a3.14,3.14,0,0,1,.28-.35c.09-.09.16-.19.25-.28a1.45,1.45,0,0,1,.19-.12h.06a1,1,0,0,1,.57.36c.14.18-.52,1.3-.74,2.12,0,0,0,0,0,.06a.05.05,0,0,0,0,0c0,.11.07.15.15.1a1.43,1.43,0,0,0,.29-.2,6.54,6.54,0,0,0,.46-.48C23.46,32.58,23.58,32.78,23.46,32.92Z"/><path class="cls-5" d="M26.61,31.91a3.51,3.51,0,0,1-.78.56c-.48.83-1.55,1.63-2.22,1.11l0,0s-.05,0-.06,0,0,.06,0,.09,0,.09-.1.1c-.78.12-.41-1.11-.24-1.52.08-.2.16-.4.25-.6s.18-.4.28-.6.17-.3.24-.46c.19-.36.4-.71.62-1.05a3.81,3.81,0,0,1,.49-.65l.16-.14a.1.1,0,0,1,.12,0,.64.64,0,0,1,.24.21.34.34,0,0,1,0,.27,3.71,3.71,0,0,1-.34.77c-.14.25-.3.49-.46.73-.31.45-1.21,1.5-1.24,2l.06,0,.08-.13a5.73,5.73,0,0,1,.49-.6,5.52,5.52,0,0,1,.55-.53,2,2,0,0,1,.47-.29.52.52,0,0,1,.55.08,2,2,0,0,1,.16.16l.06.08.06.23v0a.53.53,0,0,0,0,.1,1.18,1.18,0,0,1-.07.31,2.52,2.52,0,0,0,.43-.32C26.6,31.62,26.78,31.72,26.61,31.91ZM24.75,33l-.06,0a1.7,1.7,0,0,1-.56.14.43.43,0,0,1-.25-.05C23.85,33.9,24.31,33.59,24.75,33Zm.11-1.36c-.15.14-.3.28-.44.43a3.38,3.38,0,0,0-.27.32c-.15.25-.19.41-.17.49s.06.06.14.06a1.43,1.43,0,0,0,.49-.12l.41-.17a2.35,2.35,0,0,0,.37-.86C25.47,31.37,25.07,31.5,24.86,31.67Z"/><path class="cls-5" d="M27.38,33.76C25,34.29,18.87,35.67,17.16,36c-.27,0,.06-1,.45-1.21,1.53-.27,7.3-1,9.58-1.38a1.06,1.06,0,0,1,0-.69s0,0,0,0-.06,0-.09.05l-.51.46c-.12.1-.24.18-.36.27l-.07,0a.11.11,0,0,1-.09,0,1.06,1.06,0,0,1-.32-.37.48.48,0,0,1-.06-.3.78.78,0,0,1,0-.15,5.35,5.35,0,0,1,.46-.89c.11-.18.23-.36.36-.53a2.44,2.44,0,0,1,.39-.41.72.72,0,0,1,.23-.13.28.28,0,0,1,.17,0,1.58,1.58,0,0,1,.56.3h0L28,31a.17.17,0,0,1,.18-.08,1.28,1.28,0,0,1,.59.61c0,.11,0,.15-.15.14s-.15.05-.23.15a5.69,5.69,0,0,0-.35.71l-.17.42-.07.16,0,.07c0,.05,0,.11,0,.16l.12,0C30.57,33,28.65,35.46,27.38,33.76Zm-.05-1.56,0,0c.11-.22.24-.43.35-.65a.13.13,0,0,0,0-.12s-.06,0-.08,0a.75.75,0,0,0-.2.11,3,3,0,0,0-.32.3,5.23,5.23,0,0,0-.43.56,4,4,0,0,0-.32.52.72.72,0,0,0-.07.19s0,.06,0,.05a.13.13,0,0,0,.07,0l.27-.23.36-.35Zm.52,1.45"/><path class="cls-5" d="M27.63,35.51a.5.5,0,0,0-.28-.26.5.5,0,0,0-.64.3,7.55,7.55,0,0,1-14.12.11.5.5,0,0,0-.47-.32.51.51,0,0,0-.18,0,.5.5,0,0,0-.29.65,8.55,8.55,0,0,0,16-.12A.5.5,0,0,0,27.63,35.51Z"/><path class="cls-5" d="M12.76,28.43a.5.5,0,0,0,.7-.1,7.48,7.48,0,0,1,6.05-3,7.58,7.58,0,0,1,6.82,4.32.5.5,0,0,0,.45.28h0a.49.49,0,0,0,.21,0,.5.5,0,0,0,.24-.66,8.54,8.54,0,0,0-14.58-1.44A.5.5,0,0,0,12.76,28.43Z"/></g></g></g></svg>