<svg xmlns="http://www.w3.org/2000/svg" viewBox="0 0 158.74 140.93"><defs><style>.cls-1{fill:#fff;}.cls-2{fill:#ff5c08;}</style></defs><title>logo-client</title><g id="Layer_2" data-name="Layer 2"><g id="Layer_1-2" data-name="Layer 1"><path class="cls-1" d="M157.18,70.5a12.27,12.27,0,0,0-4-4.2,10,10,0,0,0,1.58-8.64h0c-1.12-4.18-5.81-9.59-10.74-10.94a11.59,11.59,0,0,0-1-6.4A70.48,70.48,0,0,0,22.72,28.42a11.57,11.57,0,0,0-2.26,6.15C7.78,40.43,0,61.73,0,73.7A21.67,21.67,0,0,0,3,85.49a14.79,14.79,0,0,0,9.75,6.66,11.58,11.58,0,0,0,.76,3.65,70.49,70.49,0,0,0,131.92-1,11.59,11.59,0,0,0,.67-5A15.56,15.56,0,0,0,157,82.54,11.93,11.93,0,0,0,157.18,70.5Z"/><ellipse class="cls-2" cx="71.15" cy="52.74" rx="3.2" ry="2.66"/><path class="cls-2" d="M51,90.08c-.11.25-.27.52-.42.78-.54,1-1.15,2-1.72,3-.4.63-.8,1.27-1.23,1.87a8.86,8.86,0,0,1-1.64,2,1.23,1.23,0,0,1-1.28.22,3.74,3.74,0,0,1-2.39-1.84s0-.07,0-.07,0,0,0-.07A4.9,4.9,0,0,1,42,95c-.08-.45-.13-.93-.2-1.38,0-.18.17-.47-.09-.56s-.33.21-.46.33c-.89.93-1.79,1.85-2.69,2.75-.61.59-1.26,1.11-1.92,1.62a1.6,1.6,0,0,1-.4.21.63.63,0,0,1-.54-.09A5.94,5.94,0,0,1,33.77,96a2.72,2.72,0,0,1-.44-1.68,4.81,4.81,0,0,1,.2-.86,30,30,0,0,1,2.25-5.13c.57-1,1.17-2.11,1.82-3.09a13.55,13.55,0,0,1,2.05-2.44,4.12,4.12,0,0,1,1.26-.82,1.54,1.54,0,0,1,1-.09,8.71,8.71,0,0,1,3.23,1.49v0c.13,0,.27-.13.4-.18a.93.93,0,0,1,1-.51A7.14,7.14,0,0,1,50,85.85c.2.58-.06.85-.76.84-.42,0-.84.36-1.25.93a32.84,32.84,0,0,0-1.69,4.09c-.27.8-.51,1.63-.79,2.43-.11.33-.22.62-.34.91a5.53,5.53,0,0,0-.07.74v.07s.17,0,.24-.06a5.07,5.07,0,0,0,.74-.7,43,43,0,0,0,3.37-5.16C50.07,88.83,51.69,88.58,51,90.08Zm-6.72-3.86a.73.73,0,0,0-.14-.69.43.43,0,0,0-.45,0,4.28,4.28,0,0,0-1.06.66A17.67,17.67,0,0,0,41,88a30.15,30.15,0,0,0-2.18,3.26,22.89,22.89,0,0,0-1.61,3,3.78,3.78,0,0,0-.32,1.08c-.05.21.06.31.27.29a.76.76,0,0,0,.36-.21c.49-.44,1-.86,1.45-1.37.64-.66,1.27-1.38,1.87-2.07s1.08-1.23,1.58-1.84l.19-.23C43.14,88.75,43.8,87.53,44.31,86.22Z"/><path class="cls-2" d="M57,90.11c-.88,1.52-3.53,7.32-5.86,7.15-7.45-1.9-1.26-10.7-.94-14,0-.39-.23-.51-.21-.68,0-.42,5.48-.69,4.42,2.22-.58,1.7-3.73,7.34-3.24,10.63,1.46.91,4.4-5.12,4.92-5.95C56.69,88.38,57.71,88.67,57,90.11Z"/><path class="cls-2" d="M51.69,82.05c-.49.24,0-1.7.76-2.09,1.11-.55,5.06-1,5.62-.67s0,1.8-.51,1.64C56.54,80.7,52.45,81.71,51.69,82.05Z"/><path class="cls-2" d="M33.67,47.79C21.15,43,6.91,83.8,18.28,82a9.71,9.71,0,0,0,4.64-2.33c3.84-3,7.26-7.89,10.06-12.13.83-1.21,2,.4,1.31,1.2a64.34,64.34,0,0,1-9.75,11.52,14.34,14.34,0,0,1-3,2.19,10.72,10.72,0,0,1-2.35.94c-20.13,5-3.72-44,10-40.5A12.87,12.87,0,0,1,32,44a12.22,12.22,0,0,1,1.3.79c-.25-.77.05-1.24,1-1.36a6.13,6.13,0,0,1,5.23,2.45c1.73,4.38-7.15,9.8-9.85,11.3l-.94.44a.87.87,0,0,1-1-1.43C29.18,55,32.71,50.79,33.67,47.79Z"/><path class="cls-2" d="M57.07,55.79l-.94-1a6.83,6.83,0,0,1-1.69-3.15,2.34,2.34,0,0,1,.31-1.93,19.29,19.29,0,0,1,1.4-1.91,12,12,0,0,1,2.68-2.14,1.66,1.66,0,0,1,1.6-.09,7.45,7.45,0,0,1,1.49,1,2.08,2.08,0,0,1,.61,2.17A45.63,45.63,0,0,1,60,54.46c-.3.6-.3.6.22,1.13,1,1.07,2,2.13,3,3.25a6.48,6.48,0,0,1,1.44,2.24,1,1,0,0,1,0,.64,30,30,0,0,1-2,3.58,72.59,72.59,0,0,0-3.87,8.11l-.33,1.33V75c.12.82.49,1.08,1.12.7A16.34,16.34,0,0,0,61.81,74c1.16-1.08,2.57-2.59,3.63-3.76,1.28-1.41,2,0,1,1.12-.8.85-1.9,2.11-2.7,2.91a20.76,20.76,0,0,1-4.15,3.37,6.93,6.93,0,0,1-1.62.64.76.76,0,0,1-.55-.07A7.66,7.66,0,0,1,54,74.69a3.39,3.39,0,0,1-.07-2.42A19,19,0,0,1,54.7,70c.21-.6,1.4-3.74,1.66-4.3l.94-2.17,1-2.13,1.25-2.69a.56.56,0,0,0-.07-.59l-.52-.58a.36.36,0,0,0-.59.11C47.89,74.46,47.32,75.26,46.7,76a11.73,11.73,0,0,1-2.31,2.44,1.61,1.61,0,0,1-1.68.19,4.9,4.9,0,0,1-3-2.61s0-.09,0-.09,0,0,0-.09a5.81,5.81,0,0,1-.31-1.22l-.14-1.82c0-.23.26-.6-.07-.73s-.45.24-.63.38c-1.25,1.13-2.49,2.27-3.74,3.36-.85.71-1.74,1.33-2.64,2a2,2,0,0,1-.54.25.8.8,0,0,1-.69-.16,7.65,7.65,0,0,1-2.32-2.67,3.56,3.56,0,0,1-.43-2.23,6.15,6.15,0,0,1,.34-1.11,39.68,39.68,0,0,1,3.37-6.5c.83-1.3,1.7-2.65,2.63-3.87a17.91,17.91,0,0,1,2.88-3,5.35,5.35,0,0,1,1.71-1,2,2,0,0,1,1.28,0,11.44,11.44,0,0,1,4.08,2.21v0l.54-.2a1.22,1.22,0,0,1,1.31-.59c1.43.37,4,3.26,4.29,4.44.2.77-.15,1.1-1.07,1-.55,0-1.13.4-1.7,1.1a41.48,41.48,0,0,0-2.54,5.19L44,73.8,43.52,75a7,7,0,0,0-.16,1V76s.23,0,.32-.06a6.49,6.49,0,0,0,1-.85c1.5-1.69,2.82-3.51,12.29-18.36C57.17,56.37,57.44,56.19,57.07,55.79ZM43.13,63.37a.94.94,0,0,0-.12-.91c-.14-.13-.41-.08-.59,0a5.54,5.54,0,0,0-1.44.77,22,22,0,0,0-2.36,2.22,38.56,38.56,0,0,0-3.12,4.07,30.19,30.19,0,0,0-2.35,3.82,5.07,5.07,0,0,0-.51,1.39c-.08.28.06.41.33.4a1,1,0,0,0,.49-.24c.67-.52,1.34-1,2-1.65.89-.8,1.78-1.7,2.62-2.55l2.22-2.26.26-.28C41.4,66.57,42.36,65,43.13,63.37Z"/><path class="cls-2" d="M76,69c-1.27,1.91-5.21,9.24-8.23,8.83-9.55-3.1-.73-14,0-18.36.07-.51-.25-.68-.21-.91,0-.55,7.2-.44,5.58,3.26C72.25,64,67.66,71.09,68,75.42c1.82,1.32,6.16-6.3,6.91-7.33C75.75,66.74,77,67.21,76,69Z"/><path class="cls-2" d="M107.81,70.82c-.75.8-1.77,2-2.53,2.73a19.62,19.62,0,0,1-3.88,3.08,7.37,7.37,0,0,1-1.63.46h-.18c-4.84.1-4.73-3.88-4-7.19a44.61,44.61,0,0,1,3.39-9c.52-1.06,1.23-1.68,1.47-3,0,0-.1-.09-.14-.13-.5.2-.71.71-1.11,1.13a11.09,11.09,0,0,0-1.51,1.46c-1.58,2.33-3.43,4.62-5.09,7s-3.77,5.22-4.69,8.18c-.16.6-.28,1.24-.45,1.84v.09a.14.14,0,0,0,0,.09c-.08.32-.21.6-.29.88a2.49,2.49,0,0,0-.19,1.28c-1.19,0-2.23.3-3-.91a6.52,6.52,0,0,1-.78-3,9.13,9.13,0,0,1,.11-2.52l0-.14a28.65,28.65,0,0,1,1.53-5.57A47.23,47.23,0,0,1,87,62.12l0-.18c.56-1.16,1.12-2.32,1.63-3.47a.89.89,0,0,0,.12-.37s-.09,0-.18-.08c-.36,0-.54.29-.76.52-.57.7-1.19,1.41-1.76,2.2-1.45,2.06-2.9,4.06-4.3,6.16a48.54,48.54,0,0,0-4.08,7.43A15,15,0,0,0,77,77.12c0,.28,0,.55,0,.78a1.65,1.65,0,0,1-1.69-.18c-.09,0-.14-.09-.23-.13a4.67,4.67,0,0,1-1.76-.91,6.2,6.2,0,0,1-1.84-1.91,2,2,0,0,1-.14-1.69,46.46,46.46,0,0,1,1.91-6.36c.93-2.54,1.87-4.81,2.94-7.31.35-.51.65-1,1-1.58a7.38,7.38,0,0,1,1-1.36,1,1,0,0,1,.86-.25,5.9,5.9,0,0,1,2.22.8A9.7,9.7,0,0,1,83,58.36c.42.49.52.76.31,1.22l-1.17,2.09-2.73,4.87a9.73,9.73,0,0,0-.56,1.39.51.51,0,0,0,0,.28c.09,0,.13-.14.18-.19.4-.56.79-1.16,1.23-1.77.75-1,1.45-2.05,2.19-3.08,1.1-1.45,2.15-2.89,3.25-4.3A31.06,31.06,0,0,1,88,56.29a9.83,9.83,0,0,1,1.35-.86c.4-.2,1.42.28,1.84.49A6.44,6.44,0,0,1,94,58.08c.62.9-1.44,5.39-1.82,6.31s-.77,1.85-1.2,2.77c1.53-2.28,3.16-4.48,4.79-6.62a22.74,22.74,0,0,1,2-2.58c.67-.66,1.2-1.36,1.81-2a11.09,11.09,0,0,1,1.39-.86.64.64,0,0,1,.41,0,7.56,7.56,0,0,1,4.14,2.66c1,1.3-3.83,9.48-5.43,15.51,0,.14,0,.27-.08.41a.34.34,0,0,0,.05.23c.11.82.53,1.08,1.12.74a10.45,10.45,0,0,0,2.15-1.48,47.38,47.38,0,0,0,3.37-3.48C107.87,68.35,108.73,69.84,107.81,70.82Z"/><path class="cls-2" d="M130.84,63.48c-1.46,1.55-2.59,2.13-5.68,4.09-3.48,6-11.3,11.89-16.21,8.11a1.25,1.25,0,0,0-.19-.31c-.19-.18-.37-.13-.41.1s0,.46-.07.69c0,.5-.16.64-.71.71-5.73.9-3-8.09-1.74-11.09.6-1.48,1.19-3,1.83-4.39s1.28-2.91,2-4.35c.56-1.16,1.21-2.23,1.77-3.34,1.38-2.64,3-5.2,4.52-7.72a27.92,27.92,0,0,1,3.56-4.72c.35-.37.8-.66,1.2-1a.76.76,0,0,1,.87-.07,4.68,4.68,0,0,1,1.73,1.55,2.48,2.48,0,0,1,.24,2,26.69,26.69,0,0,1-2.48,5.6c-1,1.81-2.18,3.58-3.36,5.31-2.28,3.27-8.86,11-9.07,14.52.22-.1.36-.15.45-.2a10.18,10.18,0,0,0,.57-.93,41.11,41.11,0,0,1,3.57-4.4,40.14,40.14,0,0,1,4-3.86,14.62,14.62,0,0,1,3.41-2.11,3.77,3.77,0,0,1,4,.61,14.41,14.41,0,0,1,1.18,1.2,2.94,2.94,0,0,1,.47.58c.16.54.31,1.13.46,1.68,0,0,0,.09,0,.19a3.68,3.68,0,0,0,.06.73,8.65,8.65,0,0,1-.52,2.3,18.57,18.57,0,0,0,3.17-2.33C130.83,61.33,132.12,62.07,130.84,63.48Zm-13.56,8.16a2,2,0,0,1-.45.2,12.52,12.52,0,0,1-4.13,1,3.17,3.17,0,0,1-1.84-.4C110.67,78,114.07,75.76,117.29,71.64Zm.8-9.94c-1.11,1-2.18,2.08-3.24,3.15a24.39,24.39,0,0,0-2,2.34c-1.09,1.81-1.42,3-1.26,3.56.1.31.47.44,1.06.43a10.44,10.44,0,0,0,3.58-.88c.95-.35,1.94-.79,3-1.28A17.19,17.19,0,0,0,122,62.73C122.5,59.52,119.61,60.43,118.09,61.7Z"/><path class="cls-2" d="M136.49,77c-17.61,3.85-62.23,14-74.77,16.47-2,0,.42-7.41,3.26-8.87,11.18-2,53.38-7.58,70.07-10.12a7.74,7.74,0,0,1,0-5.07c0-.09,0-.13-.14-.18-.28-.17-.45.24-.63.38-1.25,1.14-2.49,2.27-3.74,3.36-.84.71-1.74,1.33-2.64,1.95a2.07,2.07,0,0,1-.54.25.8.8,0,0,1-.69-.16,7.67,7.67,0,0,1-2.32-2.67,3.55,3.55,0,0,1-.43-2.23,6.31,6.31,0,0,1,.33-1.1,39.45,39.45,0,0,1,3.37-6.49c.83-1.3,1.7-2.66,2.63-3.87a17.86,17.86,0,0,1,2.88-3,5.24,5.24,0,0,1,1.71-1,2.05,2.05,0,0,1,1.27,0,11.5,11.5,0,0,1,4.09,2.21v0c.18-.05.36-.15.54-.2a1.22,1.22,0,0,1,1.31-.59c1.43.37,4,3.26,4.29,4.44.2.77-.15,1.1-1.07,1-.55,0-1.13.4-1.7,1.1a42.35,42.35,0,0,0-2.55,5.19c-.42,1-.8,2.08-1.23,3.1-.17.41-.34.79-.51,1.16l-.12.55c0,.37,0,.78,0,1.14a8.29,8.29,0,0,1,.91-.12C159.81,71.25,145.77,89.44,136.49,77Zm-.38-11.41.27-.28c.82-1.58,1.78-3.12,2.56-4.78a1,1,0,0,0-.12-.91.56.56,0,0,0-.59,0,5.51,5.51,0,0,0-1.44.77,22,22,0,0,0-2.35,2.22,37.86,37.86,0,0,0-3.12,4.07A28.52,28.52,0,0,0,129,70.52a5,5,0,0,0-.51,1.38c-.08.27.05.41.33.4a1,1,0,0,0,.5-.24c.67-.52,1.34-1,2-1.66.89-.8,1.78-1.7,2.62-2.54S135.4,66.36,136.11,65.6Zm3.83,10.63"/><path class="cls-2" d="M138.36,89.78a3.65,3.65,0,0,0-6.75.27,55.2,55.2,0,0,1-103.31.79,3.65,3.65,0,1,0-6.81,2.63,62.51,62.51,0,0,0,117-.89A3.65,3.65,0,0,0,138.36,89.78Z"/><path class="cls-2" d="M29.6,38a3.65,3.65,0,0,0,5.11-.75A54.74,54.74,0,0,1,79,15a55.46,55.46,0,0,1,49.89,31.57,3.67,3.67,0,0,0,3.3,2.08h0a3.6,3.6,0,0,0,1.57-.35,3.65,3.65,0,0,0,1.73-4.86A62.5,62.5,0,0,0,28.85,32.91,3.66,3.66,0,0,0,29.6,38Z"/></g></g></svg>