<svg xmlns="http://www.w3.org/2000/svg" viewBox="0 0 158.74 140.93"><defs><style>.cls-1{fill:#fff;}.cls-2{fill:#36afc7;}</style></defs><title>logo-partner</title><g id="Layer_2" data-name="Layer 2"><g id="Layer_1-2" data-name="Layer 1"><path class="cls-1" d="M157.18,70.5a12.25,12.25,0,0,0-4-4.21,10,10,0,0,0,1.58-8.64h0c-1.12-4.18-5.81-9.59-10.74-10.94a11.55,11.55,0,0,0-1-6.4A70.48,70.48,0,0,0,22.72,28.42a11.53,11.53,0,0,0-2.26,6.15C7.78,40.43,0,61.73,0,73.7A21.68,21.68,0,0,0,3,85.49a14.8,14.8,0,0,0,9.75,6.66,11.64,11.64,0,0,0,.76,3.65,70.49,70.49,0,0,0,131.92-1,11.58,11.58,0,0,0,.67-5A15.56,15.56,0,0,0,157,82.54,11.91,11.91,0,0,0,157.18,70.5Z"/><ellipse class="cls-2" cx="71.15" cy="52.74" rx="3.2" ry="2.66"/><path class="cls-2" d="M51,90.08a8.52,8.52,0,0,1-.42.78c-.54,1-1.15,2-1.72,3-.4.63-.79,1.27-1.23,1.87a9,9,0,0,1-1.64,2,1.23,1.23,0,0,1-1.28.23,3.77,3.77,0,0,1-2.39-1.85s0-.07,0-.07,0,0,0-.07A4.46,4.46,0,0,1,42,95c-.08-.45-.13-.93-.2-1.38,0-.18.17-.47-.09-.55s-.33.21-.46.32c-.9.93-1.79,1.86-2.69,2.75-.61.58-1.26,1.1-1.92,1.62a1.6,1.6,0,0,1-.4.21.62.62,0,0,1-.54-.09A5.93,5.93,0,0,1,33.77,96a2.72,2.72,0,0,1-.44-1.68,4.88,4.88,0,0,1,.2-.86,30.42,30.42,0,0,1,2.26-5.13c.57-1,1.17-2.11,1.82-3.09a13.48,13.48,0,0,1,2.05-2.44,4.08,4.08,0,0,1,1.26-.83,1.56,1.56,0,0,1,1-.09,8.75,8.75,0,0,1,3.23,1.49v0c.14,0,.27-.13.41-.18a.93.93,0,0,1,1-.51A7.14,7.14,0,0,1,50,85.85c.2.58-.06.85-.76.85-.42,0-.85.36-1.25.92a31.72,31.72,0,0,0-1.69,4.09c-.27.8-.51,1.63-.79,2.43-.11.33-.22.62-.34.91a5.35,5.35,0,0,0-.07.74.58.58,0,0,1,0,.07s.18,0,.24-.06a5.32,5.32,0,0,0,.74-.7,43.67,43.67,0,0,0,3.37-5.17C50.06,88.84,51.69,88.57,51,90.08ZM44.3,86.22a.72.72,0,0,0-.14-.69c-.11-.1-.32,0-.45,0a4.26,4.26,0,0,0-1.06.66A17.14,17.14,0,0,0,41,88a29.26,29.26,0,0,0-2.18,3.26,22.28,22.28,0,0,0-1.61,3,3.84,3.84,0,0,0-.32,1.08c-.05.22.06.31.27.29a.76.76,0,0,0,.36-.21c.49-.43,1-.86,1.45-1.37.64-.66,1.27-1.38,1.88-2.07s1.08-1.23,1.58-1.84l.19-.23C43.14,88.75,43.79,87.53,44.3,86.22Z"/><path class="cls-2" d="M57,90.11c-.88,1.52-3.52,7.32-5.86,7.16-7.45-1.89-1.26-10.7-.94-14,0-.39-.22-.5-.21-.68,0-.42,5.48-.69,4.42,2.22-.57,1.7-3.73,7.34-3.24,10.63,1.45.92,4.4-5.12,4.92-5.94C56.69,88.38,57.7,88.67,57,90.11Z"/><path class="cls-2" d="M51.69,82.05c-.49.24,0-1.7.76-2.09,1.11-.55,5.06-.95,5.62-.66s0,1.8-.51,1.63C56.54,80.7,52.45,81.71,51.69,82.05Z"/><path class="cls-2" d="M33.67,47.79C21.15,43,6.91,83.8,18.28,82.05a9.7,9.7,0,0,0,4.64-2.33c3.84-3,7.26-7.89,10.06-12.13.83-1.21,2,.4,1.31,1.19a64.15,64.15,0,0,1-9.76,11.52,14.2,14.2,0,0,1-3,2.19,10.62,10.62,0,0,1-2.35.94c-20.13,5-3.72-44,10-40.49a12.64,12.64,0,0,1,4.07,1.84c-.25-.77.05-1.24,1-1.35a6.14,6.14,0,0,1,5.23,2.45c1.73,4.38-7.16,9.8-9.85,11.3l-.95.44a.86.86,0,0,1-1-1.43C29.18,55,32.71,50.79,33.67,47.79Z"/><path class="cls-2" d="M57.07,55.78l-.94-1a6.85,6.85,0,0,1-1.69-3.15,2.32,2.32,0,0,1,.31-1.93,18.77,18.77,0,0,1,1.41-1.91,11.91,11.91,0,0,1,2.68-2.14,1.67,1.67,0,0,1,1.6-.09,7.47,7.47,0,0,1,1.49,1,2.08,2.08,0,0,1,.61,2.17A45.39,45.39,0,0,1,60,54.46c-.3.6-.3.6.22,1.14,1,1.07,2,2.13,3,3.25a6.48,6.48,0,0,1,1.44,2.24,1,1,0,0,1,0,.64,29.48,29.48,0,0,1-2,3.58,73.49,73.49,0,0,0-3.87,8.11l-.33,1.34V75c.11.82.49,1.08,1.11.7A17,17,0,0,0,61.81,74c1.16-1.08,2.57-2.59,3.63-3.76,1.28-1.41,2,0,1,1.11-.79.84-1.9,2.11-2.7,2.91a20.86,20.86,0,0,1-4.15,3.37,6.77,6.77,0,0,1-1.63.64.73.73,0,0,1-.55-.07A7.61,7.61,0,0,1,54,74.69a3.4,3.4,0,0,1-.07-2.42A19.23,19.23,0,0,1,54.7,70c.21-.6,1.4-3.74,1.66-4.3l.94-2.17,1-2.13,1.25-2.69a.56.56,0,0,0-.06-.59l-.52-.58a.36.36,0,0,0-.59.11C47.88,74.46,47.31,75.26,46.7,76a11.78,11.78,0,0,1-2.3,2.44,1.61,1.61,0,0,1-1.69.19,4.9,4.9,0,0,1-3-2.61s0-.09,0-.09,0,0,0-.09a6.08,6.08,0,0,1-.31-1.22L39.2,72.8c0-.23.26-.6-.07-.73s-.45.25-.63.38c-1.24,1.13-2.49,2.27-3.74,3.36-.85.71-1.74,1.33-2.64,1.95a2,2,0,0,1-.54.25.8.8,0,0,1-.69-.16,7.72,7.72,0,0,1-2.32-2.67,3.57,3.57,0,0,1-.43-2.23,6.1,6.1,0,0,1,.33-1.11,39.4,39.4,0,0,1,3.37-6.49c.83-1.3,1.7-2.65,2.63-3.87a17.79,17.79,0,0,1,2.88-3,5.28,5.28,0,0,1,1.71-1,2,2,0,0,1,1.28,0,11.51,11.51,0,0,1,4.09,2.21v0l.54-.2a1.22,1.22,0,0,1,1.31-.59c1.43.37,4,3.26,4.29,4.44.21.77-.15,1.1-1.07,1-.55,0-1.13.4-1.7,1.1a42,42,0,0,0-2.54,5.19L44,73.8,43.51,75a7,7,0,0,0-.15,1V76s.23,0,.32-.06a6.63,6.63,0,0,0,1-.85c1.5-1.69,2.82-3.51,12.3-18.36C57.17,56.38,57.44,56.18,57.07,55.78ZM43.13,63.37a1,1,0,0,0-.12-.91c-.14-.13-.41-.08-.59,0a5.47,5.47,0,0,0-1.44.77,21.78,21.78,0,0,0-2.36,2.22,37.77,37.77,0,0,0-3.12,4.07,29.38,29.38,0,0,0-2.35,3.82,5,5,0,0,0-.51,1.38c-.08.28.06.41.33.4a1,1,0,0,0,.5-.24c.67-.52,1.34-1,2-1.66.89-.8,1.78-1.7,2.62-2.55l2.22-2.26.27-.28C41.4,66.57,42.35,65,43.13,63.37Z"/><path class="cls-2" d="M76,69c-1.27,1.91-5.21,9.25-8.24,8.83-9.55-3.1-.73-14.05,0-18.36.08-.5-.25-.67-.21-.91,0-.55,7.2-.44,5.58,3.26C72.25,64,67.66,71.1,68,75.43c1.82,1.32,6.16-6.3,6.91-7.33C75.76,66.74,77,67.21,76,69Z"/><path class="cls-2" d="M107.81,70.83c-.75.8-1.77,2-2.52,2.72a19.62,19.62,0,0,1-3.88,3.08,7.08,7.08,0,0,1-1.63.46h-.18c-4.84.1-4.73-3.88-4-7.19a44.53,44.53,0,0,1,3.39-9c.52-1.07,1.23-1.68,1.46-3,0,0-.09-.09-.14-.13-.5.2-.71.71-1.11,1.13a11.23,11.23,0,0,0-1.51,1.46c-1.58,2.33-3.43,4.62-5.09,7s-3.77,5.23-4.69,8.18c-.17.59-.28,1.24-.45,1.84,0,0,0,0,0,.09a.14.14,0,0,0,0,.09c-.08.32-.21.6-.29.88a2.43,2.43,0,0,0-.19,1.28c-1.19,0-2.23.29-3-.91a6.48,6.48,0,0,1-.77-3,9.06,9.06,0,0,1,.11-2.51l0-.14a28.83,28.83,0,0,1,1.53-5.57A47.64,47.64,0,0,1,87,62.12l0-.19c.56-1.16,1.12-2.32,1.63-3.48.09-.09.09-.23.13-.37s-.09,0-.19-.09c-.36,0-.54.29-.76.53-.57.7-1.19,1.4-1.76,2.2-1.45,2.05-2.89,4.06-4.3,6.16a48.81,48.81,0,0,0-4.07,7.43A15,15,0,0,0,77,77.12c0,.27,0,.55,0,.77a1.66,1.66,0,0,1-1.7-.18c-.09,0-.14-.09-.23-.13a4.65,4.65,0,0,1-1.76-.91,6.13,6.13,0,0,1-1.84-1.91,2,2,0,0,1-.14-1.69,46.84,46.84,0,0,1,1.91-6.36c.93-2.54,1.87-4.81,2.94-7.3.35-.52.65-1,1-1.58a7.36,7.36,0,0,1,1-1.35,1,1,0,0,1,.86-.25,5.92,5.92,0,0,1,2.22.8A9.89,9.89,0,0,1,83,58.36c.42.49.52.76.31,1.22l-1.17,2.09L79.4,66.54a9.47,9.47,0,0,0-.55,1.39s0,.18,0,.27.13-.14.18-.19c.39-.56.79-1.17,1.23-1.77.75-1,1.45-2.05,2.19-3.08,1.1-1.45,2.15-2.9,3.25-4.3A31.1,31.1,0,0,1,88,56.29a9.43,9.43,0,0,1,1.34-.86c.41-.2,1.43.27,1.84.49A6.41,6.41,0,0,1,94,58.08c.62.9-1.44,5.39-1.82,6.31s-.77,1.85-1.2,2.78c1.53-2.28,3.16-4.48,4.78-6.63a23.14,23.14,0,0,1,2-2.57c.67-.66,1.19-1.36,1.81-2a10.26,10.26,0,0,1,1.39-.86.62.62,0,0,1,.41,0,7.56,7.56,0,0,1,4.15,2.66c1,1.29-3.83,9.48-5.44,15.51,0,.14,0,.27-.08.41a.34.34,0,0,0,.05.23c.12.82.54,1.08,1.12.74a10.54,10.54,0,0,0,2.15-1.48,47.87,47.87,0,0,0,3.37-3.48C107.87,68.35,108.74,69.84,107.81,70.83Z"/><path class="cls-2" d="M130.84,63.48c-1.46,1.55-2.59,2.13-5.68,4.09-3.48,6-11.3,11.89-16.21,8.11a1.1,1.1,0,0,0-.19-.31c-.19-.18-.37-.13-.41.1s0,.46-.07.69c0,.5-.16.64-.71.71-5.73.9-3-8.09-1.74-11.1.6-1.48,1.19-3,1.84-4.39s1.28-2.92,2-4.35c.56-1.16,1.21-2.23,1.78-3.34,1.38-2.65,3-5.2,4.52-7.72a27.82,27.82,0,0,1,3.56-4.72c.35-.37.8-.66,1.2-1a.76.76,0,0,1,.87-.07,4.71,4.71,0,0,1,1.74,1.55,2.48,2.48,0,0,1,.24,2,26.77,26.77,0,0,1-2.48,5.6c-1,1.81-2.18,3.58-3.36,5.3-2.28,3.27-8.86,11-9.07,14.52l.45-.2a10.48,10.48,0,0,0,.57-.93,40.91,40.91,0,0,1,3.57-4.4,39.33,39.33,0,0,1,4-3.86,14.65,14.65,0,0,1,3.41-2.11,3.78,3.78,0,0,1,4,.61,14.83,14.83,0,0,1,1.18,1.2,3,3,0,0,1,.47.58c.16.54.31,1.13.46,1.68,0,0,0,.09,0,.18a4.07,4.07,0,0,0,.07.73,8.9,8.9,0,0,1-.52,2.3,18.58,18.58,0,0,0,3.17-2.33C130.83,61.33,132.13,62.07,130.84,63.48Zm-13.55,8.16a1.87,1.87,0,0,1-.45.2,12.47,12.47,0,0,1-4.13,1,3.17,3.17,0,0,1-1.84-.4C110.67,78,114.07,75.76,117.29,71.64Zm.8-9.94c-1.11,1-2.18,2.08-3.24,3.15a25,25,0,0,0-2,2.34c-1.09,1.82-1.42,3-1.27,3.56.1.32.47.44,1.06.43a10.59,10.59,0,0,0,3.58-.88c.95-.35,1.94-.79,3-1.28A17.22,17.22,0,0,0,122,62.74C122.5,59.52,119.61,60.43,118.09,61.7Z"/><path class="cls-2" d="M136.49,77c-17.61,3.85-62.24,14-74.77,16.47-2,0,.42-7.41,3.26-8.86C76.16,82.65,118.36,77,135,74.5a7.75,7.75,0,0,1,0-5.07c0-.09,0-.14-.14-.18-.28-.17-.45.24-.63.38-1.25,1.14-2.49,2.27-3.74,3.35-.84.71-1.74,1.33-2.63,2a2,2,0,0,1-.54.24.79.79,0,0,1-.69-.16,7.69,7.69,0,0,1-2.32-2.67,3.55,3.55,0,0,1-.43-2.23,6.56,6.56,0,0,1,.33-1.1,39.77,39.77,0,0,1,3.37-6.49c.83-1.3,1.7-2.65,2.62-3.87a17.82,17.82,0,0,1,2.88-3,5.24,5.24,0,0,1,1.71-1,2,2,0,0,1,1.28,0,11.45,11.45,0,0,1,4.08,2.21v0c.18,0,.36-.15.54-.2a1.22,1.22,0,0,1,1.3-.59c1.43.37,4,3.26,4.29,4.44.21.77-.15,1.1-1.07,1-.55,0-1.13.4-1.7,1.1a42,42,0,0,0-2.54,5.19c-.42,1-.81,2.08-1.23,3.1-.17.42-.34.79-.51,1.15l-.12.55c0,.37,0,.78,0,1.14a7.53,7.53,0,0,1,.91-.12C159.81,71.26,145.77,89.44,136.49,77Zm-.38-11.41.27-.28c.82-1.58,1.78-3.11,2.55-4.78a.94.94,0,0,0-.12-.91.56.56,0,0,0-.59,0,5.48,5.48,0,0,0-1.44.77,21.82,21.82,0,0,0-2.36,2.22,38.58,38.58,0,0,0-3.12,4.07,29.34,29.34,0,0,0-2.36,3.82,5.05,5.05,0,0,0-.51,1.39c-.08.28.06.41.33.4a1,1,0,0,0,.5-.24c.67-.52,1.34-1,2-1.66.89-.8,1.78-1.7,2.62-2.55S135.4,66.36,136.11,65.6Zm3.83,10.62"/><path class="cls-2" d="M138.35,89.79a3.63,3.63,0,0,0-2.05-1.89,3.66,3.66,0,0,0-4.69,2.17,55.21,55.21,0,0,1-103.31.79,3.67,3.67,0,0,0-3.41-2.34,3.6,3.6,0,0,0-1.31.25,3.65,3.65,0,0,0-2.09,4.72,62.51,62.51,0,0,0,117-.89A3.62,3.62,0,0,0,138.35,89.79Z"/><path class="cls-2" d="M29.6,38a3.6,3.6,0,0,0,2.18.72,3.67,3.67,0,0,0,2.93-1.47A54.73,54.73,0,0,1,79,15a55.47,55.47,0,0,1,49.89,31.57,3.66,3.66,0,0,0,3.3,2.09h0a3.61,3.61,0,0,0,1.56-.35,3.66,3.66,0,0,0,1.74-4.86A62.5,62.5,0,0,0,28.85,32.91,3.66,3.66,0,0,0,29.6,38Z"/></g></g></svg>