<svg xmlns="http://www.w3.org/2000/svg" viewBox="0 0 150.03 150"><defs><style>.cls-1{fill:#fff;fill-rule:evenodd;}.cls-2{fill:#36afc7;}</style></defs><title>placeholder-partner</title><g id="Layer_2" data-name="Layer 2"><g id="Layer_1-2" data-name="Layer 1"><path class="cls-1" d="M75,0A75,75,0,1,1,0,75,75,75,0,0,1,75,0Z"/><path class="cls-2" d="M126.64,72.85V67.43l-16.87-36.2H39.22L23.36,67.43v5.7a5.7,5.7,0,0,0,5.72,5.7,5.62,5.62,0,0,0,2.38-.51v40.43h24.4V91.66H94.08v27.1h23.44V77.71a5.58,5.58,0,0,0,3.4,1.13,5.7,5.7,0,0,0,5.72-5.7C126.7,73,126.64,72.91,126.64,72.85Zm-91.84.28v-5.7L46.41,39.71h9l-9,27.73h-.11v5.76a5.7,5.7,0,0,1-5.72,5.7A5.79,5.79,0,0,1,34.8,73.14Zm34.6-5.7h-.11v5.76a5.72,5.72,0,0,1-11.44,0V67.43l4.47-27.73H71.6Zm22.82,2v3.73a5.72,5.72,0,0,1-11.44,0v-5.7L78.63,39.71h9.23l4.42,27.73v2Zm23,3.73a5.72,5.72,0,0,1-11.44,0v-5.7L94.88,39.71h8.89L115.2,67.43Z"/></g></g></svg>